<svg xmlns="http://www.w3.org/2000/svg" xmlns:xlink="http://www.w3.org/1999/xlink" width="50" zoomAndPan="magnify" viewBox="0 0 37.5 37.499999" height="50" preserveAspectRatio="xMidYMid meet" version="1.0"><defs><clipPath id="0a5cd4af4e"><path d="M 0 0.820312 L 37.007812 0.820312 L 37.007812 36.820312 L 0 36.820312 Z M 0 0.820312 " clip-rule="nonzero"/></clipPath></defs><g clip-path="url(#0a5cd4af4e)"><path fill="#dfa097" d="M 6.476562 13.363281 L 9.53125 13.363281 L 10 29.859375 L 6.066406 29.859375 L 6.476562 13.359375 Z M 3.597656 30.449219 L 33.898438 30.449219 L 33.898438 32.574219 L 35.714844 32.574219 L 35.710938 34.695312 L 37.472656 34.695312 L 37.472656 36.816406 L 0.0234375 36.816406 L 0.0234375 34.695312 L 1.785156 34.695312 L 1.785156 32.574219 L 3.597656 32.574219 Z M 35.476562 8.753906 L 18.746094 0.820312 L 2.015625 8.753906 L 2.015625 10.050781 L 35.476562 10.050781 Z M 5.242188 10.644531 L 32.253906 10.644531 L 32.253906 12.769531 L 5.242188 12.769531 Z M 27.90625 13.363281 L 30.960938 13.363281 L 31.429688 29.859375 L 27.496094 29.859375 Z M 20.765625 13.363281 L 23.816406 13.363281 L 24.285156 29.859375 L 20.351562 29.859375 L 20.765625 13.359375 Z M 13.621094 13.363281 L 16.671875 13.359375 L 17.144531 29.859375 L 13.210938 29.859375 Z M 13.621094 13.363281 " fill-opacity="1" fill-rule="nonzero"/></g></svg>