<svg xmlns="http://www.w3.org/2000/svg" xmlns:xlink="http://www.w3.org/1999/xlink" width="50" zoomAndPan="magnify" viewBox="0 0 37.5 37.499999" height="50" preserveAspectRatio="xMidYMid meet" version="1.0"><defs><clipPath id="f82bdae0f8"><path d="M 0 5 L 37.007812 5 L 37.007812 33 L 0 33 Z M 0 5 " clip-rule="nonzero"/></clipPath><clipPath id="2daf54543b"><path d="M 19 4.3125 L 21 4.3125 L 21 8 L 19 8 Z M 19 4.3125 " clip-rule="nonzero"/></clipPath><clipPath id="6b6c02fb67"><path d="M 21 4.3125 L 23 4.3125 L 23 7 L 21 7 Z M 21 4.3125 " clip-rule="nonzero"/></clipPath></defs><path fill="#dfa097" d="M 11.019531 12.078125 C 10.609375 12.683594 10.246094 13.316406 9.949219 13.984375 C 9.675781 14.597656 9.417969 15.25 9.394531 15.929688 C 9.390625 16.054688 9.5625 16.066406 9.597656 15.960938 C 9.832031 15.300781 10.007812 14.628906 10.292969 13.988281 C 10.566406 13.375 10.894531 12.785156 11.222656 12.199219 C 11.300781 12.0625 11.105469 11.953125 11.019531 12.078125 Z M 11.019531 12.078125 " fill-opacity="1" fill-rule="nonzero"/><path fill="#dfa097" d="M 12.730469 9.597656 C 13.058594 9.210938 13.269531 8.691406 13.539062 8.257812 C 13.828125 7.785156 14.128906 7.320312 14.414062 6.847656 C 14.480469 6.738281 14.316406 6.644531 14.246094 6.746094 C 13.941406 7.210938 13.625 7.664062 13.324219 8.128906 C 13.054688 8.546875 12.6875 9.015625 12.570312 9.503906 C 12.546875 9.59375 12.664062 9.675781 12.730469 9.597656 Z M 12.730469 9.597656 " fill-opacity="1" fill-rule="nonzero"/><path fill="#dfa097" d="M 12.515625 11.355469 C 13.085938 11.566406 13.675781 11.6875 14.277344 11.742188 C 14.859375 11.796875 15.488281 11.835938 16.070312 11.757812 C 16.1875 11.742188 16.144531 11.578125 16.046875 11.566406 C 15.484375 11.5 14.902344 11.550781 14.332031 11.511719 C 13.730469 11.464844 13.140625 11.351562 12.570312 11.152344 C 12.441406 11.109375 12.390625 11.308594 12.515625 11.355469 Z M 12.515625 11.355469 " fill-opacity="1" fill-rule="nonzero"/><path fill="#dfa097" d="M 9.15625 18.433594 C 9.203125 18.628906 9.277344 18.808594 9.351562 18.992188 C 9.414062 19.160156 9.460938 19.34375 9.550781 19.496094 C 9.582031 19.550781 9.683594 19.546875 9.695312 19.480469 C 9.75 19.105469 9.46875 18.722656 9.371094 18.375 C 9.332031 18.234375 9.121094 18.292969 9.15625 18.433594 Z M 9.15625 18.433594 " fill-opacity="1" fill-rule="nonzero"/><path fill="#dfa097" d="M 5.5625 26.5 C 5.296875 26.789062 5.089844 27.121094 4.800781 27.386719 C 4.6875 27.488281 4.851562 27.648438 4.964844 27.554688 C 5.28125 27.285156 5.523438 26.957031 5.683594 26.570312 C 5.710938 26.503906 5.609375 26.449219 5.5625 26.5 Z M 5.5625 26.5 " fill-opacity="1" fill-rule="nonzero"/><g clip-path="url(#f82bdae0f8)"><path fill="#dfa097" d="M 37.183594 28.539062 C 37.167969 28.492188 37.136719 28.464844 37.101562 28.441406 C 36.953125 27.910156 36.273438 27.789062 35.8125 27.839844 C 35.136719 27.910156 34.5 28.191406 33.886719 28.464844 C 33.800781 28.347656 33.703125 28.25 33.566406 28.1875 C 33.457031 28.136719 33.339844 28.125 33.242188 28.050781 C 33.097656 27.933594 32.988281 27.710938 32.886719 27.5625 C 32.601562 27.164062 32.394531 26.722656 32.183594 26.28125 C 31.882812 25.65625 31.609375 25.015625 31.339844 24.371094 C 31.027344 23.628906 30.703125 22.875 30.492188 22.097656 C 30.417969 21.824219 30.386719 21.546875 30.324219 21.269531 C 30.21875 20.785156 30.066406 20.199219 30.25 19.714844 C 30.3125 19.546875 30.40625 19.414062 30.445312 19.238281 C 30.484375 19.0625 30.5 18.878906 30.507812 18.695312 C 30.566406 17.304688 30.246094 15.867188 29.898438 14.53125 C 29.183594 11.792969 28.054688 9.183594 26.671875 6.726562 C 26.652344 6.695312 26.628906 6.675781 26.601562 6.671875 C 26.589844 6.652344 26.574219 6.636719 26.558594 6.625 C 26.554688 6.578125 26.527344 6.53125 26.464844 6.515625 C 25.921875 6.378906 25.316406 6.527344 24.785156 6.640625 C 24.207031 6.765625 23.632812 6.921875 23.085938 7.144531 C 22.046875 7.566406 20.863281 8.15625 20.199219 9.109375 C 19.964844 8.664062 19.574219 8.296875 19.222656 7.957031 C 18.78125 7.535156 18.316406 7.128906 17.820312 6.78125 C 16.769531 6.050781 15.40625 5.277344 14.09375 5.355469 C 13.96875 5.363281 13.90625 5.46875 13.914062 5.566406 C 13.910156 5.570312 13.910156 5.574219 13.910156 5.578125 C 13.90625 5.617188 13.910156 5.65625 13.921875 5.695312 C 13.300781 6.527344 12.722656 7.421875 12.183594 8.3125 C 11.914062 8.757812 11.65625 9.214844 11.390625 9.664062 C 11.128906 10.105469 10.835938 10.527344 10.597656 10.980469 C 10.121094 11.867188 9.695312 12.8125 9.34375 13.757812 C 8.996094 14.695312 8.644531 15.632812 8.550781 16.636719 C 8.496094 17.222656 8.472656 17.832031 8.550781 18.417969 C 8.582031 18.664062 8.640625 18.902344 8.664062 19.148438 C 8.691406 19.40625 8.644531 19.648438 8.609375 19.902344 C 8.609375 19.917969 8.609375 19.933594 8.613281 19.949219 C 8.523438 20.238281 8.433594 20.53125 8.339844 20.820312 C 8.226562 21.164062 8.085938 21.46875 7.914062 21.785156 C 7.488281 22.574219 7.007812 23.332031 6.527344 24.082031 C 6.171875 24.640625 5.808594 25.195312 5.441406 25.746094 C 5.242188 26.046875 5.046875 26.351562 4.8125 26.628906 C 4.597656 26.878906 4.375 27.234375 4.058594 27.339844 C 3.890625 27.398438 3.769531 27.460938 3.652344 27.570312 C 2.945312 27.152344 2.078125 26.777344 1.269531 26.722656 C 0.949219 26.699219 0.582031 26.773438 0.457031 27.105469 C 0.195312 27.335938 0 27.6875 0.0195312 28.039062 C 0.0390625 28.453125 0.304688 28.828125 0.546875 29.144531 C 1.152344 29.941406 1.957031 30.5625 2.773438 31.117188 C 3.625 31.699219 4.550781 32.199219 5.539062 32.488281 C 5.96875 32.617188 6.484375 32.769531 6.9375 32.714844 C 7.371094 32.660156 7.546875 32.316406 7.765625 31.976562 C 7.792969 31.933594 7.800781 31.894531 7.792969 31.855469 C 8.144531 31.410156 7.839844 30.757812 7.53125 30.382812 C 7.070312 29.832031 6.4375 29.433594 5.839844 29.054688 C 5.835938 29.050781 5.832031 29.046875 5.828125 29.046875 C 5.886719 28.878906 5.90625 28.71875 5.863281 28.539062 C 5.820312 28.367188 5.78125 28.289062 5.828125 28.109375 C 5.875 27.945312 5.945312 27.789062 6.003906 27.628906 C 6.1875 27.121094 6.449219 26.652344 6.714844 26.183594 C 7.089844 25.527344 7.484375 24.886719 7.886719 24.246094 C 8.339844 23.53125 8.789062 22.777344 9.351562 22.144531 C 9.566406 21.902344 9.800781 21.679688 10.019531 21.445312 C 10.402344 21.035156 10.816406 20.625 11.386719 20.542969 C 11.710938 20.5 11.992188 20.34375 12.265625 20.164062 C 13.5 19.363281 14.542969 18.226562 15.488281 17.105469 C 16.792969 15.558594 17.933594 13.882812 18.9375 12.125 C 18.964844 12.101562 18.988281 12.066406 18.992188 12.027344 C 19.433594 11.246094 19.847656 10.449219 20.234375 9.636719 C 20.238281 9.625 20.242188 9.613281 20.246094 9.601562 C 20.25 9.605469 20.253906 9.605469 20.257812 9.605469 C 20.554688 10.523438 20.929688 11.4375 21.3125 12.320312 C 21.527344 12.808594 21.757812 13.292969 21.976562 13.78125 C 22.191406 14.257812 22.371094 14.75 22.613281 15.207031 C 23.085938 16.09375 23.605469 16.957031 24.171875 17.78125 C 24.707031 18.554688 25.257812 19.277344 25.996094 19.863281 C 26.390625 20.179688 26.804688 20.488281 27.261719 20.707031 C 27.453125 20.796875 27.648438 20.875 27.832031 20.980469 C 28.015625 21.089844 28.15625 21.238281 28.316406 21.378906 C 28.328125 21.390625 28.34375 21.398438 28.355469 21.402344 C 28.355469 21.40625 28.355469 21.40625 28.355469 21.40625 C 28.566406 21.671875 28.777344 21.9375 28.976562 22.210938 C 29.144531 22.441406 29.273438 22.6875 29.398438 22.941406 C 29.773438 23.6875 30.097656 24.464844 30.417969 25.242188 C 30.644531 25.785156 30.863281 26.332031 31.074219 26.882812 C 31.1875 27.175781 31.3125 27.464844 31.402344 27.765625 C 31.496094 28.0625 31.65625 28.480469 31.648438 28.792969 C 31.640625 29.011719 31.535156 29.171875 31.566406 29.394531 C 30.882812 29.722656 30.152344 30.195312 29.675781 30.78125 C 29.488281 31.015625 29.316406 31.339844 29.480469 31.632812 C 29.488281 31.648438 29.5 31.664062 29.507812 31.679688 C 29.699219 33.554688 32.71875 32.4375 33.71875 32.046875 C 34.589844 31.703125 35.4375 31.277344 36.1875 30.699219 C 36.550781 30.417969 36.917969 30.101562 37.195312 29.726562 C 37.5 29.316406 37.363281 28.96875 37.183594 28.539062 Z M 21.433594 11.714844 C 22.429688 10.972656 23.8125 10.816406 25.015625 10.769531 C 25.605469 10.746094 26.203125 10.777344 26.785156 10.847656 C 27.367188 10.917969 27.890625 11.089844 28.441406 11.265625 C 28.464844 11.328125 28.488281 11.390625 28.511719 11.453125 C 28.511719 11.460938 28.511719 11.46875 28.507812 11.476562 C 28.476562 11.878906 27.605469 11.984375 27.308594 12.054688 C 26.621094 12.21875 25.921875 12.335938 25.210938 12.367188 C 24.511719 12.398438 23.808594 12.355469 23.117188 12.230469 C 22.558594 12.128906 21.921875 12.046875 21.4375 11.722656 C 21.433594 11.71875 21.433594 11.71875 21.433594 11.714844 Z M 23.203125 7.425781 C 23.6875 7.21875 24.191406 7.050781 24.707031 6.929688 C 25.105469 6.839844 25.976562 6.570312 25.929688 6.789062 C 25.882812 7.007812 24.753906 7.050781 24.179688 7.246094 C 23.371094 7.527344 22.597656 7.90625 21.878906 8.371094 C 21.710938 8.484375 21.027344 9.132812 20.859375 9.101562 C 20.585938 9.054688 21.429688 8.441406 21.535156 8.367188 C 22.054688 7.992188 22.613281 7.675781 23.203125 7.425781 Z M 25.957031 7.1875 C 25.851562 7.269531 25.730469 7.335938 25.609375 7.402344 C 25.265625 7.582031 24.914062 7.75 24.558594 7.910156 C 24.007812 8.15625 23.449219 8.367188 22.882812 8.566406 C 22.417969 8.730469 21.949219 8.886719 21.476562 9.035156 C 21.507812 9.007812 21.535156 8.984375 21.566406 8.964844 C 22.023438 8.632812 22.515625 8.335938 23.027344 8.09375 C 23.589844 7.832031 24.183594 7.605469 24.78125 7.433594 C 25.152344 7.324219 25.5625 7.207031 25.957031 7.1875 Z M 17.640625 7.035156 C 18.25 7.464844 18.824219 7.949219 19.386719 8.441406 C 19.578125 8.605469 19.917969 8.84375 19.882812 9.144531 C 19.546875 9.039062 19.152344 8.515625 18.863281 8.273438 C 18.492188 7.960938 18.109375 7.660156 17.707031 7.382812 C 16.890625 6.824219 16.007812 6.371094 15.066406 6.074219 C 14.804688 5.988281 14.527344 5.910156 14.324219 5.71875 C 15.292969 5.789062 16.226562 6.160156 17.0625 6.660156 C 17.257812 6.78125 17.453125 6.90625 17.640625 7.035156 Z M 19.449219 9.296875 C 19.210938 9.226562 18.988281 9.089844 18.769531 8.96875 C 18.402344 8.757812 18.039062 8.539062 17.679688 8.308594 C 17.214844 8.003906 16.761719 7.679688 16.3125 7.34375 C 15.902344 7.035156 15.492188 6.722656 15.09375 6.398438 C 15.144531 6.414062 15.195312 6.429688 15.246094 6.445312 C 15.84375 6.664062 16.429688 6.9375 16.976562 7.277344 C 17.515625 7.613281 18.050781 7.984375 18.539062 8.398438 C 18.851562 8.660156 19.203125 8.957031 19.449219 9.296875 Z M 12.308594 8.804688 C 12.601562 8.296875 12.90625 7.800781 13.222656 7.308594 C 13.511719 6.859375 13.820312 6.414062 14.0625 5.933594 C 14.214844 6.117188 14.4375 6.289062 14.546875 6.386719 C 15.03125 6.820312 15.546875 7.222656 16.070312 7.613281 C 16.613281 8.019531 17.167969 8.414062 17.746094 8.777344 C 18.152344 9.03125 18.570312 9.289062 19 9.5 C 19.308594 9.648438 19.621094 9.753906 19.949219 9.6875 C 19.570312 10.390625 19.175781 11.089844 18.765625 11.78125 C 18.292969 11.445312 17.699219 11.25 17.175781 11.039062 C 16.46875 10.753906 15.773438 10.460938 15.027344 10.292969 C 14.320312 10.136719 13.601562 10.054688 12.878906 10.050781 C 12.554688 10.050781 12.226562 10.0625 11.898438 10.085938 C 11.773438 10.09375 11.648438 10.105469 11.527344 10.132812 C 11.789062 9.691406 12.054688 9.25 12.308594 8.804688 Z M 11.230469 10.652344 C 11.269531 10.660156 11.316406 10.65625 11.359375 10.621094 C 11.578125 10.460938 11.851562 10.46875 12.109375 10.457031 C 12.425781 10.441406 12.742188 10.425781 13.058594 10.433594 C 13.765625 10.449219 14.46875 10.542969 15.15625 10.714844 C 15.800781 10.871094 16.414062 11.117188 17.035156 11.351562 C 17.53125 11.542969 18.007812 11.773438 18.492188 11.988281 C 17.199219 12.429688 15.886719 12.507812 14.535156 12.265625 C 13.941406 12.160156 13.351562 12.011719 12.789062 11.800781 C 12.167969 11.570312 11.652344 11.234375 11.125 10.84375 C 11.160156 10.78125 11.195312 10.714844 11.230469 10.652344 Z M 7.136719 32.210938 C 6.949219 32.371094 6.695312 32.328125 6.472656 32.296875 C 6.0625 32.242188 5.660156 32.136719 5.273438 32.003906 C 4.464844 31.726562 3.710938 31.308594 3 30.835938 C 2.332031 30.390625 1.679688 29.898438 1.132812 29.308594 C 0.859375 29.015625 0.574219 28.679688 0.40625 28.308594 C 0.273438 28.011719 0.320312 27.785156 0.429688 27.558594 C 0.527344 28.039062 0.988281 28.496094 1.273438 28.816406 C 2.34375 30.015625 3.828125 30.890625 5.25 31.59375 C 5.664062 31.800781 6.105469 31.976562 6.554688 32.074219 C 6.753906 32.117188 6.988281 32.15625 7.207031 32.140625 C 7.1875 32.164062 7.164062 32.1875 7.136719 32.210938 Z M 11.621094 20.097656 C 11.023438 20.128906 10.289062 20.125 9.878906 20.578125 C 9.789062 20.675781 9.875 20.84375 10.007812 20.804688 C 10.074219 20.785156 10.140625 20.765625 10.203125 20.746094 C 10.023438 20.910156 9.855469 21.089844 9.695312 21.273438 C 9.273438 21.761719 8.84375 22.207031 8.472656 22.742188 C 7.964844 23.472656 7.492188 24.222656 7.03125 24.984375 C 6.601562 25.691406 6.121094 26.417969 5.785156 27.179688 C 5.660156 27.464844 5.5 27.78125 5.429688 28.089844 C 5.417969 28.085938 5.410156 28.082031 5.402344 28.082031 C 5.347656 28.058594 5.300781 28.046875 5.238281 28.0625 C 5.160156 28.082031 5.140625 28.167969 5.171875 28.234375 C 5.210938 28.328125 5.324219 28.359375 5.417969 28.378906 C 5.441406 28.558594 5.503906 28.730469 5.429688 28.910156 C 5.386719 29.011719 5.335938 29.105469 5.296875 29.203125 C 5.1875 29.183594 5.078125 29.078125 4.964844 29.09375 C 4.84375 29.109375 4.785156 29.210938 4.832031 29.324219 C 4.890625 29.457031 5.078125 29.511719 5.246094 29.507812 C 5.246094 29.507812 5.246094 29.507812 5.25 29.511719 C 5.277344 29.757812 5.539062 30.003906 5.394531 30.242188 C 5.339844 30.230469 5.269531 30.214844 5.238281 30.210938 C 5.074219 30.171875 4.910156 30.125 4.75 30.0625 C 4.527344 29.976562 4.367188 30.351562 4.585938 30.453125 C 4.960938 30.625 5.582031 30.929688 5.800781 30.414062 C 5.878906 30.222656 5.90625 29.980469 5.835938 29.78125 C 5.800781 29.679688 5.714844 29.597656 5.691406 29.496094 C 5.671875 29.386719 5.710938 29.300781 5.757812 29.210938 C 6.132812 29.546875 6.5625 29.820312 6.933594 30.167969 C 7.265625 30.480469 7.789062 31.035156 7.601562 31.550781 C 7.347656 32.246094 5.851562 31.539062 5.4375 31.351562 C 4.226562 30.796875 3.0625 30.101562 2.089844 29.179688 C 1.847656 28.953125 1.617188 28.714844 1.402344 28.460938 C 1.175781 28.1875 0.871094 27.886719 0.769531 27.535156 C 0.644531 27.109375 0.933594 26.996094 1.296875 27.027344 C 2.023438 27.09375 2.800781 27.453125 3.445312 27.828125 C 3.40625 27.882812 3.363281 27.929688 3.3125 27.957031 C 3.199219 28.011719 3.0625 27.96875 2.945312 27.996094 C 2.730469 28.050781 2.402344 28.304688 2.363281 28.539062 C 2.355469 28.570312 2.359375 28.605469 2.363281 28.636719 C 2.289062 28.570312 2.214844 28.503906 2.144531 28.433594 C 1.820312 28.101562 1.542969 27.742188 1.351562 27.316406 C 1.300781 27.207031 1.125 27.285156 1.160156 27.398438 C 1.28125 27.832031 1.535156 28.203125 1.828125 28.539062 C 2.117188 28.863281 2.480469 29.265625 2.878906 29.449219 C 3.085938 29.660156 3.332031 29.828125 3.59375 29.945312 C 3.835938 30.054688 4.046875 29.71875 3.804688 29.574219 C 3.636719 29.472656 3.476562 29.363281 3.332031 29.246094 C 3.359375 29.195312 3.390625 29.144531 3.425781 29.097656 C 3.46875 29.039062 3.542969 28.964844 3.558594 28.890625 C 3.574219 28.816406 3.527344 28.746094 3.449219 28.746094 C 3.355469 28.742188 3.253906 28.828125 3.199219 28.898438 C 3.160156 28.941406 3.128906 28.988281 3.101562 29.035156 C 2.980469 28.910156 2.871094 28.769531 2.777344 28.609375 C 2.757812 28.574219 2.753906 28.550781 2.75 28.539062 C 2.78125 28.519531 2.914062 28.425781 2.898438 28.4375 C 3.054688 28.328125 3.003906 28.363281 3.125 28.339844 C 3.207031 28.324219 3.277344 28.316406 3.34375 28.296875 C 3.441406 28.507812 3.597656 28.660156 3.792969 28.78125 C 3.984375 28.898438 4.246094 29.027344 4.472656 28.976562 C 4.566406 28.957031 4.589844 28.832031 4.527344 28.769531 C 4.398438 28.644531 4.203125 28.589844 4.046875 28.503906 C 3.992188 28.476562 3.9375 28.445312 3.886719 28.414062 C 3.917969 28.371094 3.949219 28.328125 3.980469 28.285156 C 4.039062 28.203125 4.085938 28.125 4.113281 28.027344 C 4.132812 27.957031 4.058594 27.910156 4 27.9375 C 3.875 27.996094 3.742188 28.105469 3.667969 28.238281 C 3.648438 28.210938 3.625 28.183594 3.609375 28.15625 C 3.625 28.136719 3.644531 28.117188 3.664062 28.097656 C 3.703125 28.050781 3.738281 27.996094 3.777344 27.945312 C 3.816406 27.925781 3.847656 27.886719 3.863281 27.839844 C 3.871094 27.828125 3.878906 27.820312 3.890625 27.808594 C 3.988281 27.71875 4.09375 27.695312 4.214844 27.652344 C 4.273438 27.765625 4.355469 27.863281 4.464844 27.933594 C 4.59375 28.015625 4.785156 28.097656 4.933594 28.03125 C 4.992188 28.003906 5.003906 27.917969 4.976562 27.867188 C 4.917969 27.757812 4.777344 27.714844 4.675781 27.65625 C 4.597656 27.609375 4.535156 27.5625 4.488281 27.492188 C 4.609375 27.390625 4.707031 27.261719 4.816406 27.136719 C 5.195312 26.703125 5.539062 26.25 5.867188 25.773438 C 6.746094 24.492188 7.636719 23.167969 8.34375 21.78125 C 8.550781 21.375 8.679688 20.953125 8.808594 20.515625 C 8.867188 20.3125 8.941406 20.070312 8.992188 19.820312 C 9.007812 19.792969 9.019531 19.765625 9.03125 19.734375 C 9.066406 19.933594 9.03125 20.121094 9.054688 20.324219 C 9.0625 20.417969 9.210938 20.492188 9.257812 20.378906 C 9.375 20.109375 9.421875 19.828125 9.339844 19.539062 C 9.28125 19.339844 9.144531 19.117188 9.042969 18.898438 C 8.980469 18.4375 8.914062 17.992188 8.921875 17.519531 C 8.921875 17.355469 8.929688 17.195312 8.941406 17.039062 C 9.253906 17.933594 9.992188 18.667969 10.839844 19.058594 C 11.351562 19.296875 12.023438 19.476562 12.640625 19.433594 C 12.585938 19.476562 12.53125 19.519531 12.476562 19.558594 C 12.214844 19.757812 11.925781 19.972656 11.621094 20.097656 Z M 13.398438 18.789062 C 12.609375 19.160156 11.730469 19.015625 10.929688 18.65625 C 10.460938 18.445312 10.039062 18.136719 9.710938 17.734375 C 9.515625 17.5 9.332031 17.21875 9.21875 16.929688 C 9.136719 16.71875 9.09375 16.492188 9.039062 16.269531 C 9.148438 15.648438 9.324219 15.042969 9.546875 14.429688 C 9.902344 13.441406 10.316406 12.488281 10.765625 11.542969 C 10.847656 11.375 10.929688 11.210938 11.019531 11.042969 C 11.910156 11.945312 13.316406 12.328125 14.515625 12.542969 C 15.765625 12.765625 17.144531 12.808594 18.375 12.421875 C 17.582031 13.707031 16.730469 14.953125 15.796875 16.132812 C 15.066406 17.0625 14.277344 17.984375 13.398438 18.789062 Z M 20.535156 9.628906 C 20.757812 9.609375 21 9.527344 21.144531 9.488281 C 21.78125 9.332031 22.398438 9.125 23.015625 8.90625 C 23.671875 8.671875 24.320312 8.417969 24.949219 8.125 C 25.484375 7.875 26.292969 7.601562 26.558594 7.007812 C 27.195312 8.285156 27.789062 9.589844 28.308594 10.921875 C 27.871094 10.707031 27.339844 10.621094 26.878906 10.554688 C 26.242188 10.464844 25.601562 10.425781 24.960938 10.453125 C 23.730469 10.507812 22.328125 10.671875 21.304688 11.417969 C 21.246094 11.28125 21.191406 11.144531 21.132812 11.007812 C 20.945312 10.546875 20.773438 10.066406 20.535156 9.628906 Z M 23.21875 15.453125 C 22.707031 14.574219 22.316406 13.621094 21.878906 12.699219 C 21.785156 12.5 21.691406 12.300781 21.605469 12.101562 C 22.058594 12.375 22.660156 12.445312 23.160156 12.535156 C 23.980469 12.675781 24.8125 12.714844 25.636719 12.648438 C 26.394531 12.585938 27.144531 12.433594 27.875 12.234375 C 28.148438 12.160156 28.46875 12.058594 28.660156 11.847656 C 28.890625 12.488281 29.105469 13.132812 29.296875 13.78125 C 29.609375 14.832031 29.886719 15.914062 30.03125 17.011719 C 29.890625 17.828125 29.339844 18.429688 28.628906 18.875 C 28.195312 19.152344 27.699219 19.328125 27.183594 19.359375 C 26.914062 19.378906 26.628906 19.367188 26.367188 19.308594 C 26.164062 19.261719 25.976562 19.179688 25.785156 19.105469 C 25.4375 18.761719 25.121094 18.382812 24.828125 17.972656 C 24.246094 17.160156 23.722656 16.320312 23.21875 15.453125 Z M 29.980469 30.894531 C 30.429688 30.40625 31.058594 30.011719 31.664062 29.714844 C 31.667969 29.730469 31.671875 29.75 31.671875 29.769531 C 31.695312 29.933594 31.59375 30.011719 31.535156 30.148438 C 31.421875 30.417969 31.464844 30.824219 31.710938 30.976562 C 31.636719 30.996094 31.566406 31.015625 31.492188 31.03125 C 31.054688 31.121094 30.617188 31.152344 30.175781 31.078125 C 30.042969 31.054688 29.992188 31.238281 30.121094 31.28125 C 30.519531 31.414062 30.941406 31.417969 31.355469 31.359375 C 31.753906 31.304688 32.246094 31.242188 32.601562 31.027344 C 32.882812 30.976562 33.15625 30.871094 33.394531 30.71875 C 33.632812 30.570312 33.425781 30.238281 33.179688 30.347656 C 33.023438 30.421875 32.863281 30.488281 32.699219 30.539062 C 32.675781 30.484375 32.65625 30.425781 32.636719 30.371094 C 32.613281 30.300781 32.597656 30.222656 32.542969 30.167969 C 32.488281 30.113281 32.40625 30.132812 32.367188 30.191406 C 32.316406 30.261719 32.328125 30.382812 32.347656 30.464844 C 32.359375 30.515625 32.375 30.566406 32.398438 30.613281 C 32.363281 30.617188 32.332031 30.625 32.296875 30.628906 C 32.195312 30.636719 32.019531 30.667969 31.898438 30.640625 C 31.867188 30.582031 31.847656 30.464844 31.851562 30.40625 C 31.851562 30.277344 31.929688 30.207031 31.980469 30.09375 C 31.988281 30.078125 31.992188 30.0625 31.996094 30.046875 C 32.394531 30.09375 32.960938 29.882812 33.109375 29.5 C 33.148438 29.402344 33.039062 29.332031 32.960938 29.347656 C 32.796875 29.375 32.652344 29.5 32.507812 29.578125 C 32.460938 29.605469 32.410156 29.628906 32.359375 29.652344 C 32.34375 29.605469 32.328125 29.558594 32.3125 29.515625 C 32.28125 29.421875 32.238281 29.347656 32.175781 29.273438 C 32.136719 29.230469 32.058594 29.253906 32.046875 29.308594 C 32.019531 29.433594 32.03125 29.601562 32.089844 29.734375 C 32.0625 29.738281 32.039062 29.738281 32.011719 29.738281 C 32 29.667969 31.980469 29.597656 31.957031 29.527344 C 31.953125 29.519531 31.953125 29.511719 31.949219 29.507812 C 31.953125 29.46875 31.941406 29.429688 31.921875 29.398438 C 31.898438 29.300781 31.894531 29.207031 31.925781 29.089844 C 31.933594 29.0625 31.941406 29.035156 31.949219 29.007812 C 32.066406 29.027344 32.183594 29.011719 32.296875 28.960938 C 32.421875 28.90625 32.589844 28.804688 32.621094 28.660156 C 32.640625 28.582031 32.585938 28.511719 32.507812 28.507812 C 32.320312 28.496094 32.171875 28.679688 31.984375 28.691406 C 31.964844 28.425781 31.859375 28.144531 31.796875 27.898438 C 31.683594 27.46875 31.527344 27.046875 31.371094 26.632812 C 30.851562 25.265625 30.324219 23.867188 29.636719 22.574219 C 29.4375 22.199219 29.179688 21.875 28.914062 21.542969 C 28.789062 21.390625 28.648438 21.207031 28.488281 21.042969 C 28.480469 21.023438 28.46875 21.007812 28.460938 20.992188 C 28.621094 21.066406 28.746094 21.191406 28.902344 21.277344 C 29 21.324219 29.113281 21.222656 29.054688 21.125 C 28.898438 20.859375 28.683594 20.679688 28.390625 20.59375 C 28.246094 20.550781 28.058594 20.539062 27.878906 20.511719 C 27.574219 20.355469 27.238281 20.230469 27.007812 20.085938 C 26.78125 19.941406 26.566406 19.785156 26.363281 19.621094 C 27.214844 19.835938 28.167969 19.636719 28.910156 19.183594 C 29.335938 18.921875 29.824219 18.5 30.125 18.007812 C 30.128906 18.082031 30.132812 18.15625 30.136719 18.230469 C 30.144531 18.515625 30.160156 18.832031 30.09375 19.117188 C 29.792969 19.609375 29.394531 20.1875 29.535156 20.765625 C 29.566406 20.902344 29.75 20.886719 29.792969 20.765625 C 29.808594 20.71875 29.824219 20.671875 29.835938 20.628906 C 29.871094 20.886719 29.933594 21.144531 30 21.398438 C 30.148438 21.996094 30.269531 22.566406 30.484375 23.148438 C 30.773438 23.914062 31.09375 24.671875 31.421875 25.421875 C 31.726562 26.125 32.019531 26.871094 32.417969 27.527344 C 32.566406 27.773438 32.722656 28.058594 32.914062 28.277344 C 32.859375 28.3125 32.8125 28.355469 32.800781 28.417969 C 32.785156 28.484375 32.816406 28.539062 32.878906 28.5625 C 32.9375 28.582031 33.011719 28.554688 33.058594 28.523438 C 33.089844 28.503906 33.117188 28.476562 33.144531 28.453125 C 33.285156 28.515625 33.433594 28.558594 33.523438 28.679688 C 33.59375 28.773438 33.640625 28.878906 33.699219 28.972656 C 33.683594 28.984375 33.675781 28.992188 33.652344 29.007812 C 33.585938 29.050781 33.523438 29.089844 33.464844 29.144531 C 33.410156 29.1875 33.40625 29.28125 33.4375 29.339844 C 33.476562 29.402344 33.550781 29.429688 33.621094 29.414062 C 33.730469 29.386719 33.8125 29.324219 33.882812 29.234375 C 33.894531 29.21875 33.90625 29.207031 33.917969 29.191406 C 34.132812 29.296875 34.429688 29.230469 34.546875 29.453125 C 34.410156 29.59375 34.261719 29.726562 34.101562 29.835938 C 33.882812 29.992188 34.078125 30.351562 34.316406 30.207031 C 34.601562 30.035156 35.140625 29.71875 34.976562 29.320312 C 34.894531 29.117188 34.683594 28.914062 34.476562 28.851562 C 34.378906 28.824219 34.253906 28.851562 34.160156 28.816406 C 34.066406 28.777344 34.023438 28.699219 33.980469 28.617188 C 34.441406 28.503906 34.878906 28.3125 35.339844 28.207031 C 35.738281 28.117188 36.519531 27.992188 36.765625 28.453125 C 36.941406 28.789062 36.527344 29.171875 36.308594 29.367188 C 36.03125 29.621094 35.71875 29.832031 35.402344 30.027344 C 34.25 30.730469 33.019531 31.28125 31.695312 31.542969 C 31.363281 31.609375 31.027344 31.644531 30.6875 31.671875 C 30.421875 31.695312 30.078125 31.734375 29.84375 31.566406 C 29.578125 31.367188 29.8125 31.078125 29.980469 30.894531 Z M 36.972656 29.296875 C 36.917969 29.515625 36.730469 29.683594 36.578125 29.84375 C 36.296875 30.132812 35.988281 30.390625 35.660156 30.621094 C 35.027344 31.066406 34.335938 31.414062 33.621094 31.695312 C 32.839844 32.007812 32.015625 32.289062 31.171875 32.355469 C 30.835938 32.378906 30.398438 32.425781 30.097656 32.230469 C 29.980469 32.152344 29.902344 32.054688 29.84375 31.941406 C 30.179688 32.074219 30.628906 32.019531 30.945312 31.988281 C 32.5625 31.824219 34.113281 31.105469 35.515625 30.308594 C 35.894531 30.09375 36.261719 29.84375 36.582031 29.542969 C 36.71875 29.417969 36.871094 29.257812 36.980469 29.078125 C 36.992188 29.148438 36.992188 29.222656 36.972656 29.296875 Z M 36.972656 29.296875 " fill-opacity="1" fill-rule="nonzero"/></g><path fill="#dfa097" d="M 27.570312 19.964844 C 27.433594 19.917969 27.375 20.136719 27.511719 20.183594 C 27.683594 20.25 27.863281 20.285156 28.042969 20.328125 C 28.207031 20.367188 28.371094 20.425781 28.539062 20.4375 C 28.605469 20.441406 28.640625 20.347656 28.59375 20.300781 C 28.335938 20.058594 27.890625 20.074219 27.570312 19.964844 Z M 27.570312 19.964844 " fill-opacity="1" fill-rule="nonzero"/><path fill="#dfa097" d="M 31.777344 27.328125 C 31.855469 27.691406 32 28.039062 32.050781 28.40625 C 32.066406 28.539062 32.289062 28.507812 32.277344 28.375 C 32.238281 27.976562 32.125 27.609375 31.910156 27.273438 C 31.863281 27.203125 31.757812 27.246094 31.777344 27.328125 Z M 31.777344 27.328125 " fill-opacity="1" fill-rule="nonzero"/><path fill="#dfa097" d="M 26.78125 8.894531 C 26.960938 9.171875 27.085938 9.488281 27.273438 9.753906 C 27.335938 9.835938 27.453125 9.785156 27.4375 9.6875 C 27.335938 9.046875 26.765625 8.441406 26.382812 7.949219 C 26.308594 7.851562 26.144531 7.980469 26.214844 8.082031 C 26.40625 8.347656 26.601562 8.617188 26.78125 8.894531 Z M 26.78125 8.894531 " fill-opacity="1" fill-rule="nonzero"/><path fill="#dfa097" d="M 28.980469 15.441406 C 28.976562 15.808594 28.933594 16.179688 28.847656 16.535156 C 28.761719 16.90625 28.59375 17.25 28.503906 17.617188 C 28.476562 17.734375 28.632812 17.847656 28.71875 17.746094 C 29.207031 17.152344 29.324219 16.1875 29.316406 15.441406 C 29.304688 14.597656 29.082031 13.789062 28.691406 13.046875 C 28.617188 12.914062 28.421875 13.03125 28.488281 13.167969 C 28.828125 13.871094 28.988281 14.65625 28.980469 15.441406 Z M 28.980469 15.441406 " fill-opacity="1" fill-rule="nonzero"/><path fill="#dfa097" d="M 23.96875 12.03125 C 24.628906 12.109375 25.332031 12.054688 25.992188 11.964844 C 26.375 11.914062 26.917969 11.898438 27.203125 11.597656 C 27.679688 11.085938 26.5 11.050781 26.257812 11.066406 C 26.164062 11.074219 26.164062 11.214844 26.257812 11.21875 C 26.464844 11.226562 26.683594 11.246094 26.886719 11.296875 C 26.925781 11.304688 27.023438 11.316406 27.050781 11.347656 C 27.09375 11.410156 27.074219 11.367188 27.011719 11.429688 C 26.894531 11.546875 26.640625 11.582031 26.484375 11.609375 C 25.644531 11.757812 24.777344 11.683594 23.941406 11.835938 C 23.824219 11.859375 23.867188 12.019531 23.96875 12.03125 Z M 23.96875 12.03125 " fill-opacity="1" fill-rule="nonzero"/><path fill="#dfa097" d="M 18.914062 7.074219 C 18.976562 7.140625 19.039062 7.207031 19.097656 7.28125 C 19.148438 7.339844 19.183594 7.417969 19.242188 7.472656 C 19.328125 7.550781 19.449219 7.488281 19.460938 7.378906 C 19.480469 7.207031 19.316406 7.023438 19.207031 6.910156 C 19.066406 6.773438 18.914062 6.652344 18.789062 6.496094 C 18.6875 6.371094 18.476562 6.535156 18.566406 6.667969 C 18.667969 6.816406 18.792969 6.941406 18.914062 7.074219 Z M 18.914062 7.074219 " fill-opacity="1" fill-rule="nonzero"/><g clip-path="url(#2daf54543b)"><path fill="#dfa097" d="M 19.980469 7.382812 C 20.023438 7.457031 20.167969 7.433594 20.15625 7.335938 C 20.101562 6.871094 19.910156 6.429688 19.785156 5.980469 C 19.648438 5.488281 19.523438 4.980469 19.488281 4.46875 C 19.476562 4.324219 19.261719 4.320312 19.261719 4.46875 C 19.269531 4.972656 19.359375 5.46875 19.480469 5.957031 C 19.601562 6.4375 19.714844 6.960938 19.980469 7.382812 Z M 19.980469 7.382812 " fill-opacity="1" fill-rule="nonzero"/></g><path fill="#dfa097" d="M 20.472656 7.015625 C 20.492188 7.121094 20.65625 7.117188 20.679688 7.015625 C 20.78125 6.582031 20.777344 6.097656 20.71875 5.65625 C 20.703125 5.539062 20.507812 5.566406 20.511719 5.683594 C 20.527344 6.128906 20.382812 6.578125 20.472656 7.015625 Z M 20.472656 7.015625 " fill-opacity="1" fill-rule="nonzero"/><g clip-path="url(#6b6c02fb67)"><path fill="#dfa097" d="M 21.34375 6.855469 C 21.933594 6.125 22.476562 5.34375 22.917969 4.511719 C 22.960938 4.433594 22.851562 4.335938 22.789062 4.410156 C 22.183594 5.128906 21.691406 5.9375 21.160156 6.710938 C 21.082031 6.820312 21.257812 6.960938 21.34375 6.855469 Z M 21.34375 6.855469 " fill-opacity="1" fill-rule="nonzero"/></g><path fill="#dfa097" d="M 22.050781 7.007812 C 22.429688 6.722656 22.839844 6.476562 23.207031 6.183594 C 23.285156 6.121094 23.199219 6.019531 23.125 6.035156 C 22.65625 6.121094 22.261719 6.523438 21.90625 6.816406 C 21.800781 6.902344 21.941406 7.085938 22.050781 7.007812 Z M 22.050781 7.007812 " fill-opacity="1" fill-rule="nonzero"/><path fill="#dfa097" d="M 19.683594 12.121094 C 19.511719 12.585938 19.339844 13.074219 19.242188 13.5625 C 19.222656 13.648438 19.332031 13.730469 19.398438 13.65625 C 19.746094 13.265625 19.816406 12.683594 19.925781 12.1875 C 19.960938 12.027344 19.738281 11.96875 19.683594 12.121094 Z M 19.683594 12.121094 " fill-opacity="1" fill-rule="nonzero"/><path fill="#dfa097" d="M 20.335938 12.285156 C 20.335938 12.09375 20.054688 12.097656 20.042969 12.285156 C 20.015625 12.773438 20.023438 13.269531 20.074219 13.757812 C 20.117188 14.183594 20.144531 14.648438 20.355469 15.03125 C 20.410156 15.132812 20.542969 15.078125 20.554688 14.976562 C 20.59375 14.535156 20.460938 14.078125 20.410156 13.636719 C 20.359375 13.1875 20.328125 12.738281 20.335938 12.285156 Z M 20.335938 12.285156 " fill-opacity="1" fill-rule="nonzero"/><path fill="#dfa097" d="M 20.730469 12.5 C 20.773438 12.796875 20.800781 13.175781 21.011719 13.40625 C 21.074219 13.472656 21.207031 13.425781 21.199219 13.328125 C 21.171875 13.023438 21.066406 12.722656 21.019531 12.417969 C 20.988281 12.226562 20.707031 12.308594 20.730469 12.5 Z M 20.730469 12.5 " fill-opacity="1" fill-rule="nonzero"/></svg>