<svg xmlns="http://www.w3.org/2000/svg" xmlns:xlink="http://www.w3.org/1999/xlink" width="50" zoomAndPan="magnify" viewBox="0 0 37.5 37.499999" height="50" preserveAspectRatio="xMidYMid meet" version="1.0"><defs><clipPath id="17d12ca593"><path d="M 9.65625 0 L 27.65625 0 L 27.65625 37.007812 L 9.65625 37.007812 Z M 9.65625 0 " clip-rule="nonzero"/></clipPath></defs><g clip-path="url(#17d12ca593)"><path fill="#dfa097" d="M 25.328125 37.320312 L 12.019531 37.320312 C 10.722656 37.320312 9.671875 36.257812 9.671875 34.945312 L 9.671875 2.515625 C 9.671875 1.203125 10.722656 0.140625 12.019531 0.140625 L 25.328125 0.140625 C 26.625 0.140625 27.679688 1.203125 27.679688 2.515625 L 27.679688 34.945312 C 27.679688 36.257812 26.625 37.320312 25.328125 37.320312 Z M 18.675781 36.527344 C 19.539062 36.527344 20.242188 35.820312 20.242188 34.945312 C 20.242188 34.074219 19.539062 33.363281 18.675781 33.363281 C 17.8125 33.363281 17.109375 34.074219 17.109375 34.945312 C 17.109375 35.820312 17.8125 36.527344 18.675781 36.527344 Z M 15.542969 2.121094 C 15.328125 2.121094 15.152344 2.296875 15.152344 2.515625 C 15.152344 2.734375 15.328125 2.910156 15.542969 2.910156 C 15.757812 2.910156 15.933594 2.734375 15.933594 2.515625 C 15.933594 2.296875 15.761719 2.121094 15.542969 2.121094 Z M 18.675781 0.539062 C 18.460938 0.539062 18.285156 0.714844 18.285156 0.933594 C 18.285156 1.152344 18.460938 1.328125 18.675781 1.328125 C 18.890625 1.328125 19.066406 1.152344 19.066406 0.933594 C 19.066406 0.714844 18.890625 0.539062 18.675781 0.539062 Z M 20.242188 2.121094 L 17.109375 2.121094 C 16.894531 2.121094 16.71875 2.296875 16.71875 2.515625 C 16.71875 2.734375 16.894531 2.910156 17.109375 2.910156 L 20.242188 2.910156 C 20.457031 2.910156 20.632812 2.734375 20.632812 2.515625 C 20.632812 2.296875 20.457031 2.121094 20.242188 2.121094 Z M 26.503906 4.097656 L 10.847656 4.097656 L 10.847656 32.574219 L 26.503906 32.574219 Z M 18.675781 33.761719 C 19.324219 33.761719 19.851562 34.289062 19.851562 34.945312 C 19.851562 35.601562 19.324219 36.132812 18.675781 36.132812 C 18.027344 36.132812 17.5 35.601562 17.5 34.945312 C 17.5 34.289062 18.027344 33.761719 18.675781 33.761719 Z M 18.675781 33.761719 " fill-opacity="1" fill-rule="evenodd"/></g></svg>