<svg xmlns="http://www.w3.org/2000/svg" xmlns:xlink="http://www.w3.org/1999/xlink" width="50" zoomAndPan="magnify" viewBox="0 0 37.5 37.499999" height="50" preserveAspectRatio="xMidYMid meet" version="1.0"><defs><clipPath id="1fd57f4b82"><path d="M 0 5.367188 L 37.007812 5.367188 L 37.007812 32.367188 L 0 32.367188 Z M 0 5.367188 " clip-rule="nonzero"/></clipPath></defs><g clip-path="url(#1fd57f4b82)"><path fill="#dfa097" d="M 4.027344 5.367188 C 1.8125 5.367188 0.015625 7.175781 0.015625 9.417969 C 0.0625 15.558594 0.015625 22.058594 0.015625 28.316406 C 0.015625 30.472656 1.675781 32.21875 3.777344 32.347656 L 33.636719 32.367188 C 35.777344 32.28125 37.484375 30.5 37.484375 28.316406 L 37.484375 8.722656 C 37.160156 6.8125 35.519531 5.367188 33.535156 5.367188 C 23.703125 5.371094 13.863281 5.367188 4.027344 5.367188 Z M 3.964844 7.496094 L 33.660156 7.496094 L 19.292969 21.988281 C 19.03125 22.253906 18.613281 22.253906 18.351562 21.988281 Z M 35.480469 8.53125 L 35.480469 28.167969 C 35.480469 29.339844 35.0625 30 34.222656 30.238281 L 24.101562 20.007812 Z M 2.25 8.617188 L 13.4375 19.902344 L 3.214844 30.214844 C 2.515625 29.976562 2.269531 29.410156 2.253906 28.632812 L 2.253906 8.617188 Z M 14.859375 21.3125 L 18.351562 24.855469 C 18.617188 25.121094 19.03125 25.121094 19.292969 24.855469 L 22.683594 21.441406 L 31.507812 30.34375 L 5.910156 30.34375 L 14.863281 21.3125 Z M 14.859375 21.3125 " fill-opacity="1" fill-rule="nonzero"/></g></svg>