<svg xmlns="http://www.w3.org/2000/svg" xmlns:xlink="http://www.w3.org/1999/xlink" width="50" zoomAndPan="magnify" viewBox="0 0 37.5 37.499999" height="50" preserveAspectRatio="xMidYMid meet" version="1.0"><defs><clipPath id="925f3603b0"><path d="M 0 0.683594 L 37.007812 0.683594 L 37.007812 36.683594 L 0 36.683594 Z M 0 0.683594 " clip-rule="nonzero"/></clipPath></defs><g clip-path="url(#925f3603b0)"><path fill="#dfa097" d="M 36.789062 15.628906 L 35.035156 15.628906 C 35.042969 14.457031 35.070312 13.277344 35.054688 12.105469 C 35.398438 12.316406 35.738281 12.53125 36.082031 12.746094 C 36.671875 13.109375 37.210938 12.183594 36.625 11.820312 C 34.625 10.574219 32.628906 9.328125 30.628906 8.085938 C 27.449219 6.101562 24.265625 4.121094 21.085938 2.136719 C 20.355469 1.683594 19.628906 1.230469 18.902344 0.777344 C 18.746094 0.679688 18.519531 0.679688 18.359375 0.777344 C 16.386719 2.023438 14.414062 3.269531 12.441406 4.515625 C 9.296875 6.496094 6.15625 8.480469 3.015625 10.464844 C 2.296875 10.914062 1.582031 11.367188 0.867188 11.820312 C 0.285156 12.1875 0.824219 13.113281 1.410156 12.746094 C 1.757812 12.523438 2.109375 12.304688 2.457031 12.082031 L 2.457031 15.605469 C 1.890625 15.605469 1.324219 15.609375 0.761719 15.628906 C 0.742188 15.632812 0.722656 15.628906 0.703125 15.628906 C 0.0078125 15.628906 0.0078125 16.703125 0.703125 16.703125 L 2.457031 16.703125 L 2.457031 33.277344 C 2.082031 33.277344 1.707031 33.285156 1.335938 33.296875 C 1.316406 33.296875 1.296875 33.296875 1.277344 33.296875 C 0.984375 33.296875 0.738281 33.542969 0.738281 33.832031 L 0.738281 36.105469 C 0.738281 36.398438 0.984375 36.644531 1.277344 36.644531 L 30.617188 36.644531 C 31.667969 36.644531 32.726562 36.675781 33.78125 36.660156 C 34.574219 36.667969 35.367188 36.671875 36.15625 36.644531 C 36.175781 36.640625 36.195312 36.644531 36.214844 36.644531 C 36.378906 36.644531 36.503906 36.582031 36.589844 36.488281 C 36.6875 36.402344 36.753906 36.277344 36.753906 36.105469 L 36.753906 33.832031 C 36.753906 33.542969 36.507812 33.296875 36.214844 33.296875 L 35.035156 33.296875 L 35.035156 16.726562 C 35.601562 16.726562 36.164062 16.722656 36.730469 16.703125 C 36.75 16.703125 36.769531 16.703125 36.789062 16.703125 C 37.480469 16.703125 37.484375 15.628906 36.789062 15.628906 Z M 35.675781 35.570312 L 2.703125 35.570312 C 2.621094 35.570312 2.539062 35.570312 2.457031 35.566406 C 2.246094 35.5625 2.027344 35.550781 1.8125 35.550781 L 1.8125 34.371094 L 34.789062 34.371094 C 34.867188 34.371094 34.953125 34.371094 35.035156 34.375 C 35.246094 34.378906 35.464844 34.390625 35.675781 34.390625 Z M 3.53125 11.496094 C 5.210938 10.441406 6.886719 9.382812 8.5625 8.324219 C 11.371094 6.550781 14.179688 4.777344 16.992188 3.003906 C 17.542969 2.65625 18.09375 2.308594 18.644531 1.960938 C 20.339844 3.015625 22.035156 4.070312 23.730469 5.128906 C 26.578125 6.902344 29.425781 8.675781 32.269531 10.449219 C 32.832031 10.796875 33.394531 11.148438 33.957031 11.5 L 33.957031 15.625 L 6.875 15.625 C 5.765625 15.625 4.644531 15.585938 3.53125 15.609375 Z M 31.203125 16.738281 L 31.203125 17.394531 L 26.578125 17.394531 L 26.578125 16.734375 L 31.203125 16.734375 Z M 24.390625 33.296875 L 22.136719 33.296875 L 22.136719 32.074219 C 22.136719 31.78125 21.890625 31.535156 21.597656 31.535156 L 20.921875 31.535156 L 20.921875 18.46875 L 21.597656 18.46875 C 21.761719 18.46875 21.886719 18.40625 21.972656 18.3125 C 22.070312 18.226562 22.136719 18.101562 22.136719 17.933594 L 22.136719 16.703125 L 25.5 16.703125 L 25.5 17.933594 C 25.5 18.222656 25.75 18.46875 26.039062 18.46875 L 26.695312 18.46875 L 26.695312 31.535156 L 26.039062 31.535156 C 25.75 31.535156 25.5 31.78125 25.5 32.074219 L 25.5 33.296875 Z M 14.308594 33.296875 L 12.050781 33.296875 L 12.050781 32.074219 C 12.050781 31.78125 11.804688 31.535156 11.511719 31.535156 L 10.796875 31.535156 L 10.796875 18.46875 L 11.511719 18.46875 C 11.675781 18.46875 11.800781 18.40625 11.886719 18.3125 C 11.984375 18.226562 12.050781 18.101562 12.050781 17.933594 L 12.050781 16.703125 L 15.355469 16.703125 L 15.355469 17.933594 C 15.355469 18.222656 15.601562 18.46875 15.894531 18.46875 L 16.558594 18.46875 L 16.558594 31.535156 L 15.894531 31.535156 C 15.605469 31.535156 15.355469 31.78125 15.355469 32.074219 L 15.355469 33.296875 Z M 6.347656 32.609375 L 10.972656 32.609375 L 10.972656 33.269531 L 6.347656 33.269531 Z M 21.058594 16.738281 L 21.058594 17.394531 L 16.433594 17.394531 L 16.433594 16.734375 L 21.058594 16.734375 Z M 21.058594 33.269531 L 16.433594 33.269531 L 16.433594 32.609375 L 21.058594 32.609375 Z M 19.84375 22.152344 L 19.84375 31.535156 L 17.636719 31.535156 L 17.636719 18.46875 L 19.84375 18.46875 Z M 6.347656 16.738281 L 6.347656 16.734375 L 10.972656 16.734375 L 10.972656 17.394531 L 6.347656 17.394531 Z M 7.511719 27.835938 L 7.511719 18.46875 L 9.722656 18.46875 L 9.722656 31.535156 L 7.511719 31.535156 Z M 31.203125 33.269531 L 26.578125 33.269531 L 26.578125 32.609375 L 31.203125 32.609375 Z M 29.980469 22.152344 L 29.980469 31.535156 L 27.769531 31.535156 L 27.769531 18.46875 L 29.980469 18.46875 Z M 3.53125 29.332031 L 3.53125 16.703125 L 5.269531 16.703125 L 5.269531 17.933594 C 5.269531 18.222656 5.515625 18.46875 5.808594 18.46875 L 6.4375 18.46875 L 6.4375 31.535156 L 5.808594 31.535156 C 5.519531 31.535156 5.269531 31.78125 5.269531 32.074219 L 5.269531 33.296875 C 4.691406 33.292969 4.113281 33.285156 3.53125 33.277344 Z M 32.726562 33.296875 L 32.28125 33.296875 L 32.28125 32.074219 C 32.28125 31.78125 32.035156 31.535156 31.742188 31.535156 L 31.054688 31.535156 L 31.054688 18.46875 L 31.742188 18.46875 C 31.90625 18.46875 32.03125 18.40625 32.121094 18.3125 C 32.214844 18.226562 32.28125 18.101562 32.28125 17.933594 L 32.28125 16.703125 L 32.347656 16.703125 C 32.882812 16.703125 33.421875 16.710938 33.957031 16.714844 L 33.957031 33.296875 Z M 32.726562 33.296875 " fill-opacity="1" fill-rule="nonzero"/></g><path fill="#dfa097" d="M 19.65625 14.0625 C 21.644531 13.691406 23.054688 11.882812 23.082031 9.902344 C 23.058594 8.109375 21.945312 6.527344 20.257812 5.90625 C 18.617188 5.300781 16.671875 5.832031 15.558594 7.175781 C 14.417969 8.558594 14.234375 10.554688 15.175781 12.097656 C 16.105469 13.621094 17.90625 14.390625 19.65625 14.0625 Z M 16.105469 8.246094 C 16.78125 7.136719 18.136719 6.523438 19.417969 6.78125 C 20.917969 7.082031 21.988281 8.378906 22.007812 9.902344 C 21.988281 11.207031 21.183594 12.433594 19.929688 12.878906 C 18.652344 13.332031 17.214844 12.949219 16.351562 11.902344 C 15.5 10.875 15.414062 9.378906 16.105469 8.246094 Z M 16.105469 8.246094 " fill-opacity="1" fill-rule="nonzero"/><path fill="#dfa097" d="M 19.78125 9.945312 C 19.679688 9.871094 19.5625 9.808594 19.4375 9.753906 C 19.332031 9.710938 19.226562 9.667969 19.125 9.625 L 19.125 9.195312 C 19.125 9.128906 19.125 9.058594 19.125 8.984375 C 19.121094 8.949219 19.121094 8.917969 19.121094 8.886719 C 19.175781 8.910156 19.234375 8.933594 19.296875 8.960938 C 19.503906 9.042969 19.703125 9.039062 19.824219 8.929688 C 19.894531 8.867188 19.929688 8.792969 19.929688 8.703125 C 19.929688 8.617188 19.890625 8.535156 19.8125 8.464844 C 19.746094 8.40625 19.664062 8.351562 19.574219 8.304688 C 19.484375 8.261719 19.390625 8.222656 19.296875 8.195312 C 19.234375 8.175781 19.179688 8.160156 19.132812 8.148438 L 19.132812 8.117188 C 19.132812 8.101562 19.132812 8.085938 19.132812 8.066406 C 19.136719 8.046875 19.136719 8.023438 19.136719 7.996094 C 19.136719 7.863281 19.121094 7.746094 19.085938 7.644531 C 19.054688 7.558594 18.972656 7.453125 18.773438 7.453125 C 18.691406 7.453125 18.625 7.472656 18.574219 7.511719 C 18.527344 7.542969 18.488281 7.589844 18.460938 7.648438 C 18.4375 7.703125 18.421875 7.765625 18.414062 7.835938 C 18.410156 7.898438 18.40625 7.964844 18.40625 8.03125 L 18.40625 8.140625 C 18.28125 8.167969 18.171875 8.203125 18.070312 8.253906 C 17.949219 8.3125 17.84375 8.386719 17.761719 8.46875 C 17.675781 8.554688 17.609375 8.648438 17.5625 8.753906 C 17.519531 8.859375 17.496094 8.96875 17.496094 9.082031 C 17.496094 9.222656 17.527344 9.347656 17.597656 9.457031 C 17.664062 9.558594 17.746094 9.648438 17.84375 9.726562 C 17.933594 9.800781 18.035156 9.867188 18.140625 9.921875 C 18.234375 9.96875 18.324219 10.011719 18.40625 10.046875 C 18.40625 10.199219 18.402344 10.34375 18.402344 10.484375 C 18.402344 10.601562 18.398438 10.722656 18.398438 10.851562 C 18.386719 10.839844 18.371094 10.832031 18.359375 10.820312 C 18.296875 10.769531 18.242188 10.722656 18.191406 10.683594 C 18.136719 10.636719 18.082031 10.59375 18.03125 10.5625 C 17.972656 10.523438 17.910156 10.503906 17.847656 10.503906 C 17.738281 10.503906 17.648438 10.542969 17.585938 10.617188 C 17.527344 10.683594 17.5 10.761719 17.5 10.847656 C 17.5 10.914062 17.527344 10.988281 17.578125 11.0625 L 17.582031 11.070312 C 17.632812 11.128906 17.683594 11.183594 17.730469 11.230469 C 17.78125 11.285156 17.839844 11.335938 17.90625 11.378906 C 17.972656 11.425781 18.050781 11.464844 18.136719 11.5 C 18.207031 11.53125 18.296875 11.5625 18.394531 11.59375 C 18.394531 11.601562 18.394531 11.609375 18.398438 11.617188 C 18.398438 11.636719 18.398438 11.65625 18.398438 11.675781 C 18.398438 11.738281 18.402344 11.800781 18.40625 11.859375 C 18.410156 11.925781 18.421875 11.984375 18.441406 12.039062 C 18.464844 12.101562 18.503906 12.152344 18.554688 12.191406 C 18.605469 12.230469 18.675781 12.25 18.761719 12.25 C 18.835938 12.25 18.910156 12.226562 18.976562 12.183594 C 19.050781 12.136719 19.101562 12.0625 19.125 11.96875 L 19.128906 11.957031 L 19.125 11.941406 C 19.121094 11.882812 19.121094 11.820312 19.121094 11.757812 L 19.121094 11.628906 C 19.226562 11.609375 19.328125 11.578125 19.433594 11.539062 C 19.5625 11.496094 19.679688 11.429688 19.78125 11.351562 C 19.886719 11.269531 19.972656 11.171875 20.039062 11.054688 C 20.105469 10.933594 20.140625 10.785156 20.140625 10.613281 C 20.140625 10.460938 20.105469 10.328125 20.039062 10.21875 C 19.972656 10.113281 19.886719 10.019531 19.78125 9.945312 Z M 18.40625 9.285156 C 18.375 9.257812 18.347656 9.230469 18.320312 9.199219 C 18.273438 9.140625 18.246094 9.082031 18.238281 9.019531 C 18.261719 8.960938 18.296875 8.921875 18.335938 8.898438 C 18.359375 8.886719 18.382812 8.875 18.40625 8.867188 Z M 19.332031 10.828125 C 19.253906 10.871094 19.183594 10.910156 19.121094 10.933594 L 19.121094 10.628906 C 19.121094 10.566406 19.121094 10.5 19.125 10.433594 C 19.125 10.414062 19.125 10.394531 19.125 10.375 C 19.152344 10.390625 19.175781 10.410156 19.199219 10.425781 C 19.253906 10.46875 19.3125 10.511719 19.375 10.5625 C 19.386719 10.582031 19.390625 10.597656 19.394531 10.609375 C 19.398438 10.632812 19.402344 10.652344 19.402344 10.675781 C 19.402344 10.734375 19.378906 10.78125 19.332031 10.828125 Z M 19.332031 10.828125 " fill-opacity="1" fill-rule="nonzero"/></svg>