<svg xmlns="http://www.w3.org/2000/svg" xmlns:xlink="http://www.w3.org/1999/xlink" width="50" zoomAndPan="magnify" viewBox="0 0 37.5 37.499999" height="50" preserveAspectRatio="xMidYMid meet" version="1.0"><defs><clipPath id="e8de327d7a"><path d="M 0 3.75 L 37.007812 3.75 L 37.007812 28.5 L 0 28.5 Z M 0 3.75 " clip-rule="nonzero"/></clipPath></defs><g clip-path="url(#e8de327d7a)"><path fill="#dfa097" d="M 32.460938 3.75 L 5.039062 3.75 C 2.269531 3.75 0.015625 6.027344 0.015625 8.832031 L 0.015625 23.417969 C 0.015625 26.21875 2.265625 28.5 5.039062 28.5 L 32.460938 28.5 C 35.230469 28.5 37.484375 26.222656 37.484375 23.417969 L 37.484375 8.832031 C 37.484375 6.03125 35.234375 3.75 32.460938 3.75 Z M 36.03125 23.417969 C 36.03125 25.40625 34.429688 27.027344 32.460938 27.027344 L 5.039062 27.027344 C 3.070312 27.027344 1.46875 25.40625 1.46875 23.417969 L 1.46875 8.832031 C 1.46875 6.84375 3.070312 5.222656 5.039062 5.222656 L 32.460938 5.222656 C 34.429688 5.222656 36.03125 6.84375 36.03125 8.832031 Z M 36.03125 23.417969 " fill-opacity="1" fill-rule="nonzero"/></g><path fill="#dfa097" d="M 12.410156 16.460938 C 11.859375 16.75 11.230469 16.917969 10.5625 16.917969 C 9.898438 16.917969 9.269531 16.753906 8.714844 16.460938 C 6.699219 17.21875 5.261719 19.183594 5.261719 21.484375 L 5.261719 22.28125 C 5.261719 22.90625 5.765625 23.414062 6.378906 23.414062 L 14.746094 23.414062 C 15.363281 23.414062 15.863281 22.90625 15.863281 22.28125 L 15.863281 21.484375 C 15.863281 19.183594 14.425781 17.21875 12.410156 16.460938 Z M 12.410156 16.460938 " fill-opacity="1" fill-rule="nonzero"/><path fill="#dfa097" d="M 13.792969 12.859375 C 13.792969 13.292969 13.710938 13.707031 13.546875 14.109375 C 13.382812 14.507812 13.148438 14.863281 12.84375 15.167969 C 12.542969 15.476562 12.195312 15.710938 11.796875 15.875 C 11.402344 16.042969 10.992188 16.125 10.5625 16.125 C 10.132812 16.125 9.722656 16.042969 9.328125 15.875 C 8.929688 15.710938 8.582031 15.476562 8.28125 15.167969 C 7.976562 14.863281 7.742188 14.507812 7.578125 14.109375 C 7.414062 13.707031 7.332031 13.292969 7.332031 12.859375 C 7.332031 12.425781 7.414062 12.007812 7.578125 11.609375 C 7.742188 11.210938 7.976562 10.855469 8.28125 10.550781 C 8.582031 10.242188 8.929688 10.007812 9.328125 9.84375 C 9.722656 9.675781 10.132812 9.59375 10.5625 9.59375 C 10.992188 9.59375 11.402344 9.675781 11.796875 9.84375 C 12.195312 10.007812 12.542969 10.242188 12.84375 10.550781 C 13.148438 10.855469 13.382812 11.210938 13.546875 11.609375 C 13.710938 12.007812 13.792969 12.425781 13.792969 12.859375 Z M 13.792969 12.859375 " fill-opacity="1" fill-rule="nonzero"/><path fill="#dfa097" d="M 31.609375 11.277344 L 20.347656 11.277344 C 19.957031 11.277344 19.640625 11.597656 19.640625 11.996094 C 19.640625 12.390625 19.957031 12.710938 20.347656 12.710938 L 31.609375 12.710938 C 32 12.710938 32.316406 12.390625 32.316406 11.996094 C 32.316406 11.597656 32 11.277344 31.609375 11.277344 Z M 31.609375 11.277344 " fill-opacity="1" fill-rule="nonzero"/><path fill="#dfa097" d="M 31.609375 15.285156 L 20.347656 15.285156 C 19.957031 15.285156 19.640625 15.605469 19.640625 16 C 19.640625 16.394531 19.957031 16.714844 20.347656 16.714844 L 31.609375 16.714844 C 32 16.714844 32.316406 16.394531 32.316406 16 C 32.316406 15.605469 32 15.285156 31.609375 15.285156 Z M 31.609375 15.285156 " fill-opacity="1" fill-rule="nonzero"/><path fill="#dfa097" d="M 31.609375 19.292969 L 20.347656 19.292969 C 19.957031 19.292969 19.640625 19.613281 19.640625 20.007812 C 19.640625 20.40625 19.957031 20.726562 20.347656 20.726562 L 31.609375 20.726562 C 32 20.726562 32.316406 20.40625 32.316406 20.007812 C 32.316406 19.613281 32 19.292969 31.609375 19.292969 Z M 31.609375 19.292969 " fill-opacity="1" fill-rule="nonzero"/></svg>