<svg xmlns="http://www.w3.org/2000/svg" xmlns:xlink="http://www.w3.org/1999/xlink" width="50" zoomAndPan="magnify" viewBox="0 0 37.5 37.499999" height="50" preserveAspectRatio="xMidYMid meet" version="1.0"><defs><clipPath id="77df513a31"><path d="M 5.835938 23 L 31.335938 23 L 31.335938 37.007812 L 5.835938 37.007812 Z M 5.835938 23 " clip-rule="nonzero"/></clipPath><clipPath id="a5652b7bd6"><path d="M 11 32 L 13 32 L 13 37.007812 L 11 37.007812 Z M 11 32 " clip-rule="nonzero"/></clipPath><clipPath id="5659a8fe7c"><path d="M 24 32 L 27 32 L 27 37.007812 L 24 37.007812 Z M 24 32 " clip-rule="nonzero"/></clipPath></defs><path fill="#dfa097" d="M 12.457031 3.898438 C 12.777344 3.222656 13.460938 2.175781 14.824219 1.394531 C 16.179688 0.617188 18.246094 0.09375 21.363281 0.589844 C 24.5 1.085938 26.433594 2.414062 27.5625 3.957031 C 29.304688 6.34375 29.128906 9.289062 28.367188 10.839844 C 28.214844 11.144531 27.847656 11.269531 27.546875 11.117188 C 27.246094 10.964844 27.121094 10.589844 27.273438 10.285156 C 27.894531 9.027344 28 6.632812 26.582031 4.691406 C 25.601562 3.351562 23.898438 2.242188 21.175781 1.8125 C 18.433594 1.375 16.617188 1.789062 15.425781 2.472656 C 13.769531 3.421875 13.390625 4.859375 13.390625 4.859375 C 13.34375 5.050781 13.210938 5.210938 13.03125 5.285156 C 12.851562 5.359375 12.644531 5.339844 12.480469 5.238281 C 12.480469 5.238281 11.875 4.871094 11.113281 4.988281 C 10.582031 5.070312 9.988281 5.410156 9.449219 6.226562 C 8.128906 8.222656 9.449219 10.21875 9.449219 10.21875 C 9.636719 10.503906 9.558594 10.886719 9.28125 11.078125 C 9 11.265625 8.621094 11.191406 8.433594 10.90625 C 8.433594 10.90625 6.65625 8.222656 8.433594 5.539062 C 9.230469 4.332031 10.140625 3.890625 10.929688 3.765625 C 11.527344 3.671875 12.066406 3.773438 12.457031 3.898438 Z M 12.457031 3.898438 " fill-opacity="1" fill-rule="evenodd"/><path fill="#dfa097" d="M 30.371094 12.316406 C 30.371094 11.007812 29.320312 9.945312 28.027344 9.945312 C 27.320312 9.945312 26.664062 9.945312 26.664062 9.945312 C 26.328125 9.945312 26.054688 10.222656 26.054688 10.5625 L 26.054688 14.074219 C 26.054688 14.414062 26.328125 14.691406 26.664062 14.691406 L 28.027344 14.691406 C 29.320312 14.691406 30.371094 13.628906 30.371094 12.320312 Z M 27.273438 11.179688 L 27.273438 13.457031 L 28.027344 13.457031 C 28.648438 13.457031 29.148438 12.949219 29.148438 12.320312 L 29.148438 12.316406 C 29.148438 11.691406 28.648438 11.179688 28.027344 11.179688 Z M 27.273438 11.179688 " fill-opacity="1" fill-rule="evenodd"/><path fill="#dfa097" d="M 6.78125 12.316406 L 6.78125 12.320312 C 6.78125 13.628906 7.832031 14.691406 9.125 14.691406 C 9.832031 14.691406 10.488281 14.691406 10.488281 14.691406 C 10.824219 14.691406 11.097656 14.414062 11.097656 14.074219 L 11.097656 10.5625 C 11.097656 10.222656 10.824219 9.945312 10.488281 9.945312 C 10.488281 9.945312 9.832031 9.945312 9.125 9.945312 C 7.832031 9.945312 6.78125 11.007812 6.78125 12.316406 Z M 9.878906 11.179688 L 9.125 11.179688 C 8.503906 11.179688 8.003906 11.691406 8.003906 12.316406 L 8.003906 12.320312 C 8.003906 12.949219 8.503906 13.457031 9.125 13.457031 L 9.878906 13.457031 Z M 9.878906 11.179688 " fill-opacity="1" fill-rule="evenodd"/><path fill="#dfa097" d="M 16.527344 28.878906 L 18.320312 28.046875 C 18.628906 27.90625 18.992188 28.042969 19.128906 28.351562 C 19.269531 28.664062 19.136719 29.03125 18.828125 29.171875 L 16.304688 30.34375 C 16.132812 30.421875 15.933594 30.417969 15.765625 30.324219 C 15.597656 30.234375 15.480469 30.070312 15.449219 29.878906 L 14.507812 24.027344 C 14.453125 23.691406 14.679688 23.375 15.011719 23.320312 C 15.34375 23.261719 15.65625 23.492188 15.710938 23.828125 Z M 16.527344 28.878906 " fill-opacity="1" fill-rule="evenodd"/><path fill="#dfa097" d="M 20.625 28.878906 L 21.441406 23.828125 C 21.492188 23.492188 21.808594 23.261719 22.140625 23.320312 C 22.472656 23.375 22.699219 23.691406 22.644531 24.027344 L 21.703125 29.878906 C 21.671875 30.070312 21.554688 30.234375 21.386719 30.324219 C 21.21875 30.417969 21.019531 30.421875 20.84375 30.34375 L 18.320312 29.171875 C 18.015625 29.03125 17.878906 28.664062 18.019531 28.351562 C 18.160156 28.042969 18.523438 27.90625 18.828125 28.046875 Z M 20.625 28.878906 " fill-opacity="1" fill-rule="evenodd"/><path fill="#dfa097" d="M 19.0625 28.980469 L 22.53125 24.300781 C 22.734375 24.027344 22.679688 23.640625 22.410156 23.433594 C 22.140625 23.230469 21.757812 23.285156 21.554688 23.558594 L 18.085938 28.238281 C 17.886719 28.511719 17.941406 28.898438 18.210938 29.105469 C 18.480469 29.308594 18.863281 29.253906 19.0625 28.980469 Z M 19.0625 28.980469 " fill-opacity="1" fill-rule="evenodd"/><path fill="#dfa097" d="M 18.574219 27.578125 L 21.554688 23.558594 C 21.757812 23.285156 22.140625 23.230469 22.410156 23.433594 C 22.679688 23.640625 22.734375 24.027344 22.53125 24.300781 L 19.0625 28.980469 C 18.949219 29.136719 18.769531 29.226562 18.574219 29.226562 C 18.382812 29.226562 18.203125 29.136719 18.085938 28.980469 L 14.621094 24.300781 C 14.417969 24.027344 14.472656 23.640625 14.742188 23.433594 C 15.011719 23.230469 15.394531 23.285156 15.597656 23.558594 Z M 18.574219 27.578125 " fill-opacity="1" fill-rule="evenodd"/><path fill="#dfa097" d="M 27.273438 10.5625 C 27.273438 10.417969 27.222656 10.277344 27.128906 10.164062 L 23.664062 6.007812 C 23.546875 5.867188 23.378906 5.789062 23.199219 5.789062 L 13.953125 5.789062 C 13.773438 5.789062 13.605469 5.867188 13.488281 6.007812 L 10.019531 10.164062 C 9.929688 10.277344 9.878906 10.417969 9.878906 10.5625 L 9.878906 14.074219 C 9.878906 18.941406 13.773438 22.882812 18.574219 22.882812 L 18.574219 22.265625 L 18.574219 22.882812 C 23.378906 22.882812 27.273438 18.941406 27.273438 14.074219 Z M 26.054688 10.789062 L 22.914062 7.023438 L 14.238281 7.023438 L 11.097656 10.789062 L 11.097656 14.074219 C 11.097656 18.257812 14.445312 21.648438 18.574219 21.648438 L 18.574219 22.265625 L 18.574219 21.648438 C 22.707031 21.648438 26.054688 18.257812 26.054688 14.074219 Z M 26.054688 10.789062 " fill-opacity="1" fill-rule="evenodd"/><g clip-path="url(#77df513a31)"><path fill="#dfa097" d="M 31.320312 30.320312 C 31.320312 28.460938 30.589844 26.679688 29.292969 25.363281 C 27.992188 24.050781 26.234375 23.308594 24.398438 23.308594 C 20.8125 23.308594 16.339844 23.308594 12.753906 23.308594 C 10.917969 23.308594 9.160156 24.050781 7.859375 25.363281 C 6.5625 26.679688 5.832031 28.460938 5.832031 30.320312 C 5.832031 33.554688 5.832031 36.800781 5.832031 36.800781 C 5.832031 37.144531 6.105469 37.421875 6.445312 37.421875 L 30.707031 37.421875 C 31.046875 37.421875 31.320312 37.144531 31.320312 36.800781 Z M 30.097656 36.183594 L 30.097656 30.320312 C 30.097656 28.789062 29.496094 27.320312 28.425781 26.238281 C 27.359375 25.15625 25.910156 24.546875 24.398438 24.546875 C 20.8125 24.546875 16.339844 24.546875 12.753906 24.546875 C 11.242188 24.546875 9.792969 25.15625 8.722656 26.238281 C 7.65625 27.320312 7.054688 28.789062 7.054688 30.320312 L 7.054688 36.183594 Z M 30.097656 36.183594 " fill-opacity="1" fill-rule="evenodd"/></g><g clip-path="url(#a5652b7bd6)"><path fill="#dfa097" d="M 12.253906 36.800781 L 12.253906 33.292969 C 12.253906 32.949219 11.980469 32.671875 11.644531 32.671875 C 11.304688 32.671875 11.03125 32.949219 11.03125 33.292969 L 11.03125 36.800781 C 11.03125 37.144531 11.304688 37.421875 11.644531 37.421875 C 11.980469 37.421875 12.253906 37.144531 12.253906 36.800781 Z M 12.253906 36.800781 " fill-opacity="1" fill-rule="evenodd"/></g><g clip-path="url(#5659a8fe7c)"><path fill="#dfa097" d="M 26.117188 36.800781 L 26.117188 33.292969 C 26.117188 32.949219 25.84375 32.671875 25.507812 32.671875 C 25.171875 32.671875 24.898438 32.949219 24.898438 33.292969 L 24.898438 36.800781 C 24.898438 37.144531 25.171875 37.421875 25.507812 37.421875 C 25.84375 37.421875 26.117188 37.144531 26.117188 36.800781 Z M 26.117188 36.800781 " fill-opacity="1" fill-rule="evenodd"/></g><path fill="#dfa097" d="M 16.523438 23.4375 L 16.523438 21.8125 C 16.523438 21.46875 16.25 21.191406 15.910156 21.191406 C 15.574219 21.191406 15.300781 21.46875 15.300781 21.8125 L 15.300781 23.4375 C 15.300781 23.777344 15.574219 24.054688 15.910156 24.054688 C 16.25 24.054688 16.523438 23.777344 16.523438 23.4375 Z M 16.523438 23.4375 " fill-opacity="1" fill-rule="evenodd"/><path fill="#dfa097" d="M 21.851562 23.4375 L 21.851562 21.8125 C 21.851562 21.46875 21.578125 21.191406 21.238281 21.191406 C 20.902344 21.191406 20.628906 21.46875 20.628906 21.8125 L 20.628906 23.4375 C 20.628906 23.777344 20.902344 24.054688 21.238281 24.054688 C 21.578125 24.054688 21.851562 23.777344 21.851562 23.4375 Z M 21.851562 23.4375 " fill-opacity="1" fill-rule="evenodd"/></svg>