<svg xmlns="http://www.w3.org/2000/svg" xmlns:xlink="http://www.w3.org/1999/xlink" width="50" zoomAndPan="magnify" viewBox="0 0 37.5 37.499999" height="50" preserveAspectRatio="xMidYMid meet" version="1.0"><defs><clipPath id="7a4f5e1a4f"><path d="M 0 0 L 37.007812 0 L 37.007812 37.007812 L 0 37.007812 Z M 0 0 " clip-rule="nonzero"/></clipPath></defs><path fill="#dfa097" d="M 18.753906 15 C 18.425781 15 18.109375 15.0625 17.804688 15.1875 C 17.5 15.316406 17.230469 15.496094 17 15.730469 C 16.765625 15.964844 16.585938 16.234375 16.460938 16.539062 C 16.332031 16.847656 16.269531 17.164062 16.269531 17.496094 C 16.269531 17.828125 16.332031 18.148438 16.460938 18.453125 C 16.585938 18.757812 16.765625 19.027344 17 19.261719 C 17.230469 19.496094 17.5 19.679688 17.804688 19.804688 C 18.109375 19.933594 18.425781 19.996094 18.753906 19.996094 C 19.082031 19.996094 19.398438 19.933594 19.703125 19.804688 C 20.007812 19.679688 20.277344 19.496094 20.507812 19.261719 C 20.742188 19.027344 20.921875 18.757812 21.046875 18.453125 C 21.171875 18.148438 21.238281 17.828125 21.238281 17.496094 C 21.238281 17.164062 21.171875 16.847656 21.046875 16.542969 C 20.921875 16.234375 20.742188 15.964844 20.507812 15.730469 C 20.277344 15.496094 20.007812 15.316406 19.703125 15.1875 C 19.398438 15.0625 19.082031 15 18.753906 15 Z M 18.753906 18.746094 C 18.589844 18.746094 18.429688 18.714844 18.277344 18.652344 C 18.125 18.585938 17.992188 18.496094 17.875 18.378906 C 17.757812 18.261719 17.667969 18.128906 17.605469 17.976562 C 17.542969 17.820312 17.511719 17.664062 17.511719 17.496094 C 17.511719 17.332031 17.542969 17.171875 17.605469 17.019531 C 17.667969 16.867188 17.757812 16.730469 17.875 16.613281 C 17.992188 16.496094 18.125 16.40625 18.277344 16.34375 C 18.429688 16.277344 18.589844 16.246094 18.753906 16.246094 C 18.917969 16.246094 19.078125 16.277344 19.230469 16.34375 C 19.382812 16.40625 19.515625 16.496094 19.632812 16.613281 C 19.75 16.730469 19.835938 16.867188 19.902344 17.019531 C 19.964844 17.171875 19.996094 17.332031 19.996094 17.496094 C 19.996094 17.664062 19.964844 17.820312 19.902344 17.976562 C 19.835938 18.128906 19.746094 18.261719 19.632812 18.378906 C 19.515625 18.496094 19.378906 18.585938 19.230469 18.652344 C 19.078125 18.714844 18.917969 18.746094 18.753906 18.746094 Z M 18.753906 18.746094 " fill-opacity="1" fill-rule="nonzero"/><g clip-path="url(#7a4f5e1a4f)"><path fill="#dfa097" d="M 36.464844 24.769531 C 34.546875 23.445312 28.839844 19.398438 28.839844 19.398438 C 29.199219 19.464844 29.550781 19.429688 29.886719 19.292969 C 30.226562 19.15625 30.503906 18.9375 30.714844 18.636719 C 31.296875 17.816406 31.089844 16.585938 30.257812 16.023438 L 20.617188 9.234375 L 20.617188 7.191406 L 21.238281 7.191406 C 21.484375 7.191406 21.722656 7.144531 21.949219 7.046875 C 22.175781 6.953125 22.378906 6.816406 22.554688 6.640625 C 22.726562 6.464844 22.863281 6.261719 22.957031 6.035156 C 23.050781 5.804688 23.097656 5.566406 23.097656 5.316406 C 23.097656 5.066406 23.050781 4.828125 22.957031 4.597656 C 22.863281 4.371094 22.726562 4.167969 22.554688 3.992188 C 22.378906 3.816406 22.175781 3.679688 21.949219 3.585938 C 21.722656 3.488281 21.484375 3.441406 21.238281 3.441406 L 20.617188 3.441406 L 20.617188 1.882812 C 20.617188 1.632812 20.570312 1.394531 20.472656 1.164062 C 20.378906 0.933594 20.246094 0.730469 20.070312 0.554688 C 19.894531 0.378906 19.695312 0.246094 19.464844 0.148438 C 19.238281 0.0546875 19 0.0078125 18.753906 0.0078125 C 18.507812 0.0078125 18.269531 0.0546875 18.042969 0.148438 C 17.8125 0.246094 17.613281 0.378906 17.4375 0.554688 C 17.261719 0.730469 17.128906 0.933594 17.035156 1.164062 C 16.9375 1.394531 16.890625 1.632812 16.890625 1.882812 L 16.890625 3.441406 L 16.269531 3.441406 C 16.023438 3.441406 15.785156 3.488281 15.558594 3.585938 C 15.332031 3.679688 15.128906 3.816406 14.953125 3.992188 C 14.78125 4.167969 14.644531 4.371094 14.550781 4.597656 C 14.457031 4.828125 14.410156 5.066406 14.410156 5.316406 C 14.410156 5.566406 14.457031 5.804688 14.550781 6.035156 C 14.644531 6.261719 14.78125 6.464844 14.953125 6.640625 C 15.128906 6.816406 15.332031 6.953125 15.558594 7.046875 C 15.785156 7.144531 16.023438 7.191406 16.269531 7.191406 L 16.890625 7.191406 L 16.890625 9.234375 L 7.25 16.023438 C 6.417969 16.585938 6.210938 17.816406 6.792969 18.636719 C 7.003906 18.9375 7.28125 19.15625 7.621094 19.292969 C 7.957031 19.429688 8.308594 19.464844 8.667969 19.398438 C 8.667969 19.398438 2.960938 23.445312 1.042969 24.769531 C 0.214844 25.339844 0.00390625 26.5625 0.585938 27.382812 C 0.730469 27.589844 0.914062 27.761719 1.125 27.894531 C 1.339844 28.027344 1.574219 28.117188 1.824219 28.15625 C 2.070312 28.195312 2.320312 28.183594 2.566406 28.121094 C 2.808594 28.0625 3.035156 27.957031 3.234375 27.804688 L 3.234375 36.859375 C 3.234375 37.03125 3.296875 37.179688 3.417969 37.300781 C 3.539062 37.425781 3.683594 37.484375 3.855469 37.484375 L 33.652344 37.484375 C 33.824219 37.484375 33.96875 37.425781 34.089844 37.300781 C 34.210938 37.179688 34.273438 37.03125 34.273438 36.859375 L 34.273438 27.804688 C 34.472656 27.957031 34.699219 28.0625 34.941406 28.121094 C 35.1875 28.183594 35.4375 28.195312 35.683594 28.15625 C 35.933594 28.113281 36.167969 28.027344 36.382812 27.894531 C 36.59375 27.761719 36.777344 27.589844 36.921875 27.382812 C 37.503906 26.5625 37.292969 25.339844 36.464844 24.769531 Z M 16.269531 5.941406 C 16.097656 5.941406 15.953125 5.878906 15.832031 5.757812 C 15.710938 5.636719 15.648438 5.488281 15.648438 5.316406 C 15.648438 5.144531 15.710938 4.996094 15.832031 4.875 C 15.953125 4.753906 16.097656 4.691406 16.269531 4.691406 L 17.511719 4.691406 C 17.683594 4.691406 17.832031 4.628906 17.953125 4.507812 C 18.074219 4.386719 18.132812 4.238281 18.132812 4.066406 L 18.132812 1.882812 C 18.132812 1.707031 18.195312 1.5625 18.316406 1.4375 C 18.4375 1.316406 18.582031 1.257812 18.753906 1.257812 C 18.925781 1.257812 19.070312 1.316406 19.191406 1.4375 C 19.3125 1.5625 19.375 1.707031 19.375 1.882812 L 19.375 4.066406 C 19.375 4.238281 19.433594 4.386719 19.554688 4.507812 C 19.675781 4.628906 19.824219 4.691406 19.996094 4.691406 L 21.238281 4.691406 C 21.410156 4.691406 21.554688 4.753906 21.675781 4.875 C 21.796875 4.996094 21.859375 5.144531 21.859375 5.316406 C 21.859375 5.488281 21.796875 5.636719 21.675781 5.757812 C 21.554688 5.878906 21.410156 5.941406 21.238281 5.941406 L 19.996094 5.941406 C 19.824219 5.941406 19.675781 6.003906 19.554688 6.125 C 19.433594 6.246094 19.375 6.394531 19.375 6.566406 L 19.375 8.445312 C 18.960938 8.300781 18.546875 8.300781 18.132812 8.445312 L 18.132812 6.566406 C 18.132812 6.394531 18.074219 6.246094 17.953125 6.125 C 17.832031 6.003906 17.683594 5.941406 17.511719 5.941406 Z M 7.808594 17.917969 C 7.710938 17.777344 7.679688 17.621094 7.707031 17.453125 C 7.738281 17.28125 7.824219 17.148438 7.960938 17.046875 C 7.960938 17.046875 15.789062 11.53125 18.398438 9.695312 C 18.636719 9.53125 18.871094 9.53125 19.109375 9.695312 C 21.71875 11.53125 29.546875 17.046875 29.546875 17.046875 C 29.6875 17.144531 29.773438 17.28125 29.804688 17.453125 C 29.835938 17.621094 29.800781 17.78125 29.699219 17.921875 C 29.601562 18.0625 29.46875 18.148438 29.296875 18.179688 C 29.125 18.210938 28.972656 18.171875 28.832031 18.074219 C 28.832031 18.074219 22.074219 13.3125 19.824219 11.722656 C 19.5 11.496094 19.144531 11.382812 18.753906 11.382812 C 18.363281 11.382812 18.007812 11.496094 17.683594 11.722656 C 15.433594 13.3125 8.675781 18.074219 8.675781 18.074219 C 8.535156 18.171875 8.382812 18.207031 8.210938 18.175781 C 8.042969 18.144531 7.910156 18.058594 7.808594 17.917969 Z M 9.441406 36.234375 L 7.890625 36.234375 L 7.890625 30.867188 C 7.890625 30.277344 8.632812 29.339844 9.441406 28.554688 Z M 9.441406 26.878906 C 8.640625 27.53125 6.648438 29.316406 6.648438 30.867188 L 6.648438 36.234375 L 4.476562 36.234375 L 4.476562 26.929688 L 9.441406 23.425781 Z M 9.441406 21.902344 C 9.441406 21.902344 4.21875 25.59375 2.46875 26.816406 C 1.800781 27.285156 1.089844 26.261719 1.753906 25.792969 C 3.675781 24.433594 9.441406 20.375 9.441406 20.375 Z M 21.859375 36.234375 L 15.648438 36.234375 L 15.648438 28.355469 C 15.648438 27.117188 17.417969 25.128906 18.753906 23.9375 C 20.089844 25.128906 21.859375 27.117188 21.859375 28.355469 Z M 26.824219 36.234375 L 23.097656 36.234375 L 23.097656 28.355469 C 23.097656 25.957031 19.550781 22.96875 19.148438 22.636719 C 19.03125 22.539062 18.902344 22.492188 18.753906 22.492188 C 18.605469 22.492188 18.476562 22.539062 18.359375 22.636719 C 17.957031 22.96875 14.410156 25.957031 14.410156 28.355469 L 14.410156 36.234375 L 10.683594 36.234375 L 10.683594 18.183594 L 18.398438 12.746094 C 18.636719 12.578125 18.871094 12.578125 19.109375 12.746094 L 26.824219 18.183594 Z M 29.617188 36.234375 L 28.066406 36.234375 L 28.066406 28.554688 C 28.875 29.339844 29.617188 30.273438 29.617188 30.867188 Z M 33.03125 36.234375 L 30.859375 36.234375 L 30.859375 30.867188 C 30.859375 29.316406 28.867188 27.53125 28.066406 26.875 L 28.066406 23.425781 L 33.03125 26.929688 Z M 35.039062 26.816406 C 33.289062 25.59375 28.066406 21.902344 28.066406 21.902344 L 28.066406 20.375 C 28.066406 20.375 33.832031 24.433594 35.753906 25.792969 C 36.417969 26.261719 35.707031 27.285156 35.039062 26.816406 Z M 35.039062 26.816406 " fill-opacity="1" fill-rule="nonzero"/></g></svg>