<svg xmlns="http://www.w3.org/2000/svg" xmlns:xlink="http://www.w3.org/1999/xlink" width="50" zoomAndPan="magnify" viewBox="0 0 37.5 37.499999" height="50" preserveAspectRatio="xMidYMid meet" version="1.0"><defs><clipPath id="6c241e266f"><path d="M 3.75 0 L 35.25 0 L 35.25 37.007812 L 3.75 37.007812 Z M 3.75 0 " clip-rule="nonzero"/></clipPath><clipPath id="a4c33b9fde"><path d="M 3.75 11 L 5 11 L 5 14 L 3.75 14 Z M 3.75 11 " clip-rule="nonzero"/></clipPath></defs><g clip-path="url(#6c241e266f)"><path fill="#dfa097" d="M 35.074219 22.816406 C 34.855469 21.703125 34.464844 20.625 33.898438 19.578125 C 33.394531 18.636719 32.75 17.800781 31.96875 17.074219 C 31.199219 16.355469 30.359375 15.734375 29.449219 15.207031 C 28.980469 14.9375 28.503906 14.679688 28.019531 14.4375 C 27.058594 13.949219 26.089844 13.464844 25.125 12.980469 C 24.019531 12.425781 23.070312 11.902344 22.273438 11.414062 C 20.984375 10.628906 19.855469 9.660156 18.875 8.507812 C 18.863281 8.496094 18.863281 8.484375 18.875 8.480469 C 18.878906 8.476562 18.890625 8.480469 18.902344 8.488281 C 19.121094 8.660156 19.332031 8.804688 19.527344 8.921875 C 20.441406 9.464844 21.414062 9.949219 22.449219 10.378906 C 23.808594 10.945312 25.15625 11.535156 26.496094 12.148438 C 27.847656 12.765625 29.183594 13.597656 30.507812 14.640625 C 32.324219 16.070312 33.683594 17.914062 34.589844 20.175781 C 34.664062 20.363281 34.710938 20.503906 34.734375 20.589844 C 34.734375 20.597656 34.738281 20.601562 34.742188 20.605469 C 34.761719 20.625 34.765625 20.621094 34.761719 20.585938 C 34.417969 18.804688 33.734375 17.15625 32.707031 15.632812 C 32.664062 15.574219 32.648438 15.507812 32.65625 15.433594 C 33.078125 12.078125 32.46875 8.964844 30.832031 6.097656 C 30.59375 5.6875 30.347656 5.300781 30.082031 4.9375 C 29.070312 3.542969 27.851562 2.398438 26.429688 1.511719 C 25.316406 0.816406 24.097656 0.355469 22.773438 0.128906 C 22.300781 0.0507812 21.847656 0.0078125 21.410156 0.00390625 C 20.84375 0 20.289062 0.0507812 19.746094 0.15625 C 18.4375 0.414062 17.308594 1.019531 16.355469 1.976562 C 16.046875 2.289062 15.792969 2.640625 15.589844 3.042969 C 15.589844 3.042969 15.589844 3.046875 15.585938 3.046875 C 15.574219 3.066406 15.546875 3.070312 15.527344 3.054688 C 14.886719 2.5625 14.191406 2.257812 13.441406 2.144531 C 13.050781 2.085938 12.65625 2.082031 12.265625 2.140625 C 11.847656 2.199219 11.46875 2.316406 11.125 2.496094 C 9.460938 3.371094 8.59375 4.785156 8.515625 6.746094 C 8.511719 6.789062 8.515625 6.804688 8.527344 6.792969 C 8.53125 6.789062 8.535156 6.78125 8.535156 6.769531 C 8.605469 5.820312 8.9375 4.976562 9.53125 4.242188 C 10.210938 3.398438 11.0625 2.949219 12.085938 2.902344 C 12.519531 2.878906 12.96875 2.945312 13.433594 3.09375 C 14.738281 3.511719 15.679688 4.382812 16.253906 5.710938 C 16.257812 5.726562 16.261719 5.738281 16.261719 5.753906 C 16.265625 5.835938 16.246094 5.839844 16.207031 5.761719 C 16.023438 5.417969 15.789062 5.117188 15.496094 4.863281 C 15.09375 4.507812 14.652344 4.214844 14.167969 3.988281 C 13.769531 3.796875 13.355469 3.671875 12.929688 3.609375 C 12.488281 3.546875 12.066406 3.5625 11.65625 3.664062 C 10.839844 3.855469 10.183594 4.308594 9.6875 5.023438 C 8.914062 6.125 8.664062 7.363281 8.929688 8.742188 C 9.046875 9.347656 9.230469 9.875 9.480469 10.324219 C 9.726562 10.765625 9.976562 11.253906 10.230469 11.796875 C 10.339844 12.03125 10.363281 12.257812 10.304688 12.476562 C 10.261719 12.632812 10.171875 12.769531 10.035156 12.890625 C 9.902344 13.007812 9.753906 13.089844 9.59375 13.144531 C 9.347656 13.222656 9.089844 13.261719 8.820312 13.257812 C 8.578125 13.257812 8.324219 13.21875 8.058594 13.140625 C 7.398438 12.945312 6.835938 12.578125 6.367188 12.046875 C 5.878906 11.488281 5.613281 10.855469 5.574219 10.152344 C 5.546875 9.714844 5.621094 9.261719 5.796875 8.800781 C 6.003906 8.246094 6.3125 7.75 6.726562 7.308594 C 6.75 7.285156 6.757812 7.269531 6.753906 7.265625 C 6.753906 7.265625 6.753906 7.265625 6.75 7.261719 C 6.746094 7.257812 6.726562 7.265625 6.710938 7.277344 C 6.394531 7.570312 6.113281 7.921875 5.871094 8.335938 C 5.296875 9.3125 5.039062 10.363281 5.097656 11.488281 C 5.148438 12.441406 5.453125 13.269531 6.019531 13.972656 C 6.835938 14.996094 7.921875 15.519531 9.269531 15.546875 C 10.097656 15.566406 10.804688 15.292969 11.390625 14.726562 C 11.40625 14.710938 11.417969 14.714844 11.421875 14.738281 C 11.507812 15.117188 11.441406 15.464844 11.214844 15.78125 C 11.046875 16.019531 10.84375 16.199219 10.605469 16.328125 C 10.152344 16.566406 9.664062 16.695312 9.132812 16.71875 C 7.40625 16.789062 6.035156 16.140625 5.019531 14.773438 C 4.644531 14.273438 4.335938 13.683594 4.089844 13.007812 C 4.023438 12.996094 4.007812 13.019531 4.042969 13.074219 C 4.265625 13.707031 4.554688 14.300781 4.90625 14.859375 C 5.164062 15.269531 5.449219 15.628906 5.761719 15.9375 C 6.601562 16.78125 7.601562 17.339844 8.761719 17.605469 C 9.140625 17.695312 9.601562 17.738281 10.144531 17.734375 C 10.457031 17.710938 10.460938 17.714844 10.164062 17.75 C 9.117188 17.867188 8.132812 17.730469 7.210938 17.339844 C 6.203125 16.914062 5.429688 16.226562 4.886719 15.273438 C 4.492188 14.582031 4.199219 13.851562 4.011719 13.078125 C 3.996094 13.042969 3.972656 13.035156 3.941406 13.0625 C 4.089844 13.972656 4.351562 14.8125 4.722656 15.574219 C 5.128906 16.40625 5.714844 17.078125 6.472656 17.585938 C 6.859375 17.847656 7.269531 18.042969 7.707031 18.175781 C 8.8125 18.507812 9.929688 18.425781 11.054688 17.933594 C 11.070312 17.925781 11.089844 17.929688 11.101562 17.945312 C 11.28125 18.136719 11.492188 18.296875 11.726562 18.417969 C 11.882812 18.5 12.011719 18.582031 12.121094 18.664062 C 12.222656 18.742188 12.28125 18.832031 12.300781 18.9375 C 12.320312 19.058594 12.304688 19.175781 12.25 19.289062 C 12.242188 19.304688 12.203125 19.355469 12.132812 19.441406 C 12.085938 19.5 12.058594 19.5625 12.054688 19.632812 C 12.050781 19.707031 12.078125 19.792969 12.136719 19.890625 C 12.292969 20.140625 12.519531 20.328125 12.824219 20.445312 C 12.828125 20.445312 12.828125 20.449219 12.832031 20.449219 C 12.851562 20.460938 12.859375 20.488281 12.847656 20.507812 C 12.734375 20.691406 12.679688 20.882812 12.6875 21.082031 C 12.695312 21.285156 12.792969 21.433594 12.980469 21.519531 C 13.03125 21.542969 13.097656 21.554688 13.179688 21.5625 C 13.246094 21.566406 13.316406 21.570312 13.382812 21.578125 C 13.507812 21.589844 13.601562 21.621094 13.664062 21.679688 C 13.78125 21.78125 13.84375 21.925781 13.84375 22.109375 C 13.847656 22.332031 13.867188 22.550781 13.90625 22.769531 C 13.945312 23.027344 14.015625 23.234375 14.113281 23.390625 C 14.28125 23.667969 14.523438 23.847656 14.832031 23.929688 C 15.035156 23.980469 15.316406 23.976562 15.679688 23.917969 C 15.980469 23.871094 16.28125 23.804688 16.578125 23.71875 C 16.691406 23.6875 16.949219 23.632812 17.34375 23.558594 C 17.757812 23.476562 18.105469 23.539062 18.390625 23.742188 C 18.582031 23.882812 18.773438 24.148438 18.964844 24.542969 C 19.097656 24.820312 19.210938 25.101562 19.300781 25.394531 C 19.398438 25.6875 19.445312 25.835938 19.445312 25.84375 C 19.632812 26.382812 19.824219 26.921875 20.023438 27.460938 C 20.03125 27.480469 20.023438 27.5 20.003906 27.507812 C 18.960938 27.941406 18.042969 28.554688 17.257812 29.351562 C 16.625 29.988281 16.15625 30.699219 15.847656 31.484375 C 15.664062 31.957031 15.5625 32.40625 15.550781 32.828125 C 15.515625 33.804688 15.886719 34.632812 16.664062 35.316406 C 16.664062 35.320312 16.667969 35.320312 16.671875 35.320312 C 16.675781 35.320312 16.675781 35.320312 16.679688 35.316406 C 16.679688 35.308594 16.675781 35.304688 16.671875 35.300781 C 16.035156 34.683594 15.847656 33.9375 16.101562 33.058594 C 16.257812 32.527344 16.515625 32.070312 16.878906 31.6875 C 17.238281 31.3125 17.660156 30.996094 18.144531 30.738281 C 18.945312 30.320312 19.792969 30.066406 20.691406 29.972656 C 21.449219 29.898438 22.207031 29.847656 22.972656 29.820312 C 23.164062 29.8125 23.546875 29.792969 24.121094 29.753906 C 25.296875 29.675781 26.363281 29.347656 27.320312 28.761719 C 28.382812 28.117188 29.097656 27.167969 29.464844 25.910156 C 29.464844 25.90625 29.464844 25.90625 29.46875 25.90625 C 29.472656 25.898438 29.476562 25.898438 29.480469 25.902344 C 29.488281 25.90625 29.488281 25.914062 29.484375 25.917969 C 29.484375 25.925781 29.480469 25.929688 29.480469 25.933594 C 29.210938 27.683594 28.300781 28.964844 26.75 29.773438 C 26.199219 30.058594 25.660156 30.253906 25.132812 30.359375 C 24.574219 30.46875 23.917969 30.542969 23.160156 30.578125 C 22.34375 30.617188 21.550781 30.765625 20.777344 31.019531 C 19.765625 31.347656 18.921875 31.925781 18.246094 32.75 C 17.765625 33.339844 17.460938 34.015625 17.328125 34.785156 C 17.148438 35.804688 17.441406 36.578125 18.203125 37.105469 C 18.382812 37.226562 18.578125 37.320312 18.792969 37.386719 C 19.007812 37.449219 19.226562 37.488281 19.441406 37.496094 C 19.519531 37.5 19.519531 37.492188 19.445312 37.46875 C 18.917969 37.320312 18.570312 37.015625 18.402344 36.558594 C 18.3125 36.308594 18.292969 36.035156 18.347656 35.738281 C 18.402344 35.453125 18.503906 35.191406 18.65625 34.949219 C 18.914062 34.527344 19.269531 34.1875 19.71875 33.925781 C 20.335938 33.566406 21.066406 33.375 21.90625 33.351562 C 22.824219 33.328125 23.652344 33.4375 24.394531 33.683594 C 24.847656 33.832031 25.273438 34.046875 25.667969 34.332031 C 25.78125 34.414062 25.789062 34.402344 25.6875 34.304688 C 24.914062 33.527344 24.003906 32.976562 22.949219 32.648438 C 22.28125 32.441406 21.640625 32.382812 21.035156 32.46875 C 20.539062 32.539062 20.082031 32.703125 19.65625 32.957031 C 19.613281 32.984375 19.613281 32.976562 19.660156 32.933594 C 20.066406 32.558594 20.527344 32.28125 21.050781 32.105469 C 21.683594 31.894531 22.390625 31.820312 23.175781 31.886719 C 24.253906 31.980469 25.335938 32.046875 26.417969 32.082031 C 26.707031 32.089844 27.117188 32.082031 27.652344 32.054688 C 29.40625 31.960938 30.960938 31.410156 32.316406 30.398438 C 32.691406 30.117188 33.03125 29.808594 33.332031 29.472656 C 34.335938 28.363281 34.945312 27.058594 35.160156 25.558594 C 35.222656 25.121094 35.246094 24.664062 35.230469 24.1875 C 35.214844 23.710938 35.160156 23.253906 35.074219 22.816406 Z M 8.175781 14.308594 C 8.09375 14.3125 8.011719 14.308594 7.933594 14.292969 C 7.757812 14.289062 7.585938 14.265625 7.417969 14.21875 C 6.421875 13.941406 5.769531 13.300781 5.472656 12.300781 C 5.46875 12.292969 5.472656 12.285156 5.476562 12.285156 C 5.480469 12.28125 5.480469 12.28125 5.480469 12.28125 L 5.488281 12.285156 C 5.492188 12.285156 5.496094 12.289062 5.496094 12.292969 C 5.683594 12.789062 5.960938 13.195312 6.335938 13.515625 C 6.800781 13.914062 7.347656 14.164062 7.984375 14.273438 C 8.054688 14.273438 8.121094 14.273438 8.191406 14.28125 C 8.265625 14.289062 8.261719 14.300781 8.171875 14.308594 Z M 19.335938 11.378906 L 19.472656 11.554688 C 19.792969 11.9375 20.125 12.273438 20.480469 12.5625 C 21.074219 13.050781 21.714844 13.472656 22.40625 13.832031 C 22.757812 14.011719 23.175781 14.195312 23.664062 14.382812 C 24.496094 14.695312 25.359375 14.976562 26.261719 15.222656 C 27.089844 15.453125 27.933594 15.742188 28.796875 16.09375 C 29.59375 16.417969 30.386719 16.890625 31.179688 17.511719 C 31.976562 18.136719 32.585938 18.914062 33.003906 19.84375 C 33.039062 19.882812 33.058594 19.921875 33.0625 19.949219 C 33.070312 20.003906 33.058594 20.007812 33.019531 19.960938 C 33.007812 19.941406 32.996094 19.910156 32.984375 19.863281 C 32.625 19.3125 32.203125 18.824219 31.710938 18.394531 C 30.941406 17.71875 30.09375 17.160156 29.171875 16.71875 C 28.15625 16.230469 27.113281 15.8125 26.042969 15.457031 C 25.363281 15.230469 24.6875 14.992188 24.015625 14.738281 C 23.496094 14.542969 22.992188 14.316406 22.5 14.0625 C 21.308594 13.449219 20.292969 12.617188 19.453125 11.574219 C 19.394531 11.527344 19.347656 11.46875 19.316406 11.402344 C 19.148438 11.1875 19.15625 11.179688 19.335938 11.378906 Z M 31.574219 22.089844 C 31.542969 22.019531 31.503906 21.945312 31.46875 21.875 C 31.457031 21.855469 31.457031 21.847656 31.472656 21.851562 C 31.480469 21.851562 31.488281 21.855469 31.496094 21.867188 L 31.609375 22.074219 C 31.859375 22.574219 32.042969 23.058594 32.164062 23.523438 C 32.503906 24.835938 32.386719 26.097656 31.8125 27.308594 C 31.804688 27.324219 31.796875 27.335938 31.789062 27.335938 C 31.769531 27.34375 31.765625 27.335938 31.777344 27.308594 C 31.960938 26.875 32.078125 26.398438 32.125 25.878906 C 32.25 24.550781 32.0625 23.289062 31.574219 22.089844 Z M 32.289062 22.492188 C 31.855469 21.183594 31.210938 19.988281 30.355469 18.910156 C 30.296875 18.855469 30.238281 18.796875 30.183594 18.738281 C 30.152344 18.707031 30.152344 18.6875 30.175781 18.683594 C 30.1875 18.683594 30.203125 18.691406 30.21875 18.707031 L 30.363281 18.875 C 31.460938 19.972656 32.160156 21.292969 32.457031 22.835938 C 32.496094 23.054688 32.535156 23.273438 32.566406 23.492188 C 32.570312 23.503906 32.566406 23.519531 32.5625 23.523438 C 32.550781 23.535156 32.542969 23.523438 32.539062 23.496094 C 32.480469 23.15625 32.398438 22.820312 32.289062 22.492188 Z M 29.742188 17.382812 L 29.414062 17.203125 C 29.382812 17.183594 29.382812 17.179688 29.421875 17.191406 C 29.539062 17.222656 29.644531 17.277344 29.742188 17.355469 C 30.136719 17.554688 30.578125 17.839844 31.066406 18.210938 C 31.570312 18.59375 31.980469 18.988281 32.296875 19.390625 C 32.53125 19.703125 32.523438 19.710938 32.277344 19.410156 C 31.546875 18.589844 30.703125 17.914062 29.742188 17.382812 Z M 21.171875 13.820312 C 22.066406 14.453125 23.023438 14.964844 24.042969 15.355469 C 25.097656 15.765625 26.15625 16.164062 27.21875 16.558594 C 27.867188 16.800781 28.503906 17.070312 29.125 17.371094 L 29.621094 17.613281 L 30.015625 17.820312 L 30.375 18.039062 L 30.582031 18.167969 L 30.910156 18.390625 L 31.082031 18.511719 C 31.308594 18.6875 31.300781 18.695312 31.0625 18.53125 L 30.875 18.410156 L 30.546875 18.183594 L 30.355469 18.058594 L 30.015625 17.851562 L 29.589844 17.628906 L 29.089844 17.386719 C 28.433594 17.085938 27.578125 16.75 26.523438 16.378906 C 25.71875 16.09375 24.910156 15.804688 24.109375 15.507812 C 23.597656 15.320312 23.09375 15.109375 22.605469 14.867188 C 21.6875 14.421875 20.859375 13.84375 20.121094 13.132812 C 19.335938 12.382812 18.71875 11.460938 18.273438 10.367188 L 18.136719 10.019531 L 18.082031 9.878906 C 17.984375 9.632812 17.941406 9.476562 17.945312 9.410156 C 17.949219 9.371094 17.960938 9.371094 17.972656 9.414062 C 18.015625 9.5625 18.0625 9.714844 18.117188 9.859375 L 18.15625 9.980469 L 18.292969 10.34375 C 18.941406 11.769531 19.898438 12.925781 21.171875 13.820312 Z M 26.019531 19.703125 C 26.160156 20.65625 26.464844 21.546875 26.929688 22.382812 L 27.035156 22.539062 C 27.214844 22.8125 27.203125 22.8125 27 22.542969 L 26.898438 22.386719 C 26.113281 21.066406 25.722656 19.640625 25.730469 18.113281 C 25.730469 17.757812 25.769531 17.375 25.851562 16.964844 C 25.851562 16.945312 25.859375 16.933594 25.871094 16.921875 C 25.902344 16.882812 25.914062 16.90625 25.910156 16.988281 C 25.847656 17.898438 25.886719 18.804688 26.019531 19.703125 Z M 28.011719 11.054688 C 27.660156 10.832031 27.308594 10.609375 26.957031 10.390625 C 24.886719 9.09375 22.816406 7.78125 20.753906 6.460938 C 20.695312 6.421875 20.699219 6.40625 20.769531 6.40625 C 21.558594 6.433594 22.34375 6.582031 23.125 6.851562 C 24.113281 7.191406 25.058594 7.722656 25.949219 8.445312 C 26.832031 9.160156 27.527344 10.023438 28.035156 11.035156 C 28.054688 11.070312 28.046875 11.078125 28.011719 11.054688 Z M 30.359375 12.894531 C 30.359375 12.902344 30.359375 12.910156 30.355469 12.914062 C 30.347656 12.929688 30.339844 12.925781 30.332031 12.902344 C 29.945312 11.375 29.375 9.917969 28.625 8.53125 C 28.371094 8.0625 28.078125 7.617188 27.75 7.199219 C 27.632812 7.050781 27.640625 7.042969 27.769531 7.175781 C 28.207031 7.652344 28.636719 8.210938 29.0625 8.855469 C 29.707031 9.828125 30.121094 10.875 30.304688 11.992188 C 30.34375 12.242188 30.363281 12.542969 30.359375 12.894531 Z M 31.535156 13.324219 C 31.175781 11.613281 30.523438 10.042969 29.578125 8.609375 C 28.40625 6.824219 26.855469 5.429688 24.929688 4.425781 C 24.269531 4.082031 23.617188 3.835938 22.96875 3.695312 C 22.945312 3.6875 22.945312 3.683594 22.96875 3.683594 C 23.164062 3.660156 23.359375 3.664062 23.554688 3.683594 C 25.414062 3.90625 27.039062 4.644531 28.425781 5.894531 C 29.226562 6.617188 29.878906 7.460938 30.378906 8.417969 C 31.1875 9.960938 31.582031 11.597656 31.554688 13.324219 C 31.554688 13.390625 31.546875 13.390625 31.535156 13.324219 Z M 24.15625 3.152344 C 26.304688 3.527344 28.066406 4.546875 29.449219 6.210938 C 30.230469 7.148438 30.820312 8.214844 31.21875 9.410156 C 31.371094 9.769531 31.453125 10.011719 31.457031 10.136719 C 31.464844 10.296875 31.445312 10.292969 31.410156 10.136719 C 31.347656 9.890625 31.273438 9.648438 31.183594 9.410156 C 30.851562 8.539062 30.417969 7.75 29.882812 7.054688 C 28.621094 5.410156 27.007812 4.257812 25.046875 3.597656 C 23.453125 3.0625 21.851562 3.042969 20.242188 3.535156 C 20.183594 3.558594 20.125 3.582031 20.066406 3.605469 C 20.054688 3.609375 20.046875 3.613281 20.035156 3.613281 C 19.96875 3.613281 19.972656 3.597656 20.046875 3.566406 C 20.105469 3.539062 20.164062 3.523438 20.226562 3.515625 C 21.5 3.039062 22.8125 2.917969 24.15625 3.152344 Z M 16.949219 5.195312 C 16.949219 5.171875 16.953125 5.148438 16.960938 5.117188 C 17.058594 4.71875 17.214844 4.347656 17.4375 4.003906 C 18.082031 3.003906 18.960938 2.304688 20.074219 1.90625 C 20.082031 1.902344 20.089844 1.898438 20.097656 1.898438 C 20.160156 1.894531 20.152344 1.902344 20.074219 1.921875 C 20.0625 1.925781 20.054688 1.929688 20.046875 1.933594 C 19.359375 2.21875 18.769531 2.621094 18.277344 3.136719 C 17.730469 3.710938 17.324219 4.390625 17.066406 5.171875 C 17.058594 5.199219 17.046875 5.222656 17.035156 5.242188 C 16.96875 5.328125 16.941406 5.3125 16.949219 5.195312 Z M 19.558594 3.8125 C 19.5625 3.820312 19.488281 3.875 19.386719 3.929688 C 19.285156 3.988281 19.203125 4.03125 19.199219 4.023438 C 19.195312 4.015625 19.273438 3.960938 19.371094 3.90625 C 19.472656 3.847656 19.554688 3.804688 19.558594 3.8125 Z M 10.726562 7.414062 C 10.621094 8.210938 10.597656 9.011719 10.652344 9.8125 C 10.65625 9.839844 10.648438 9.863281 10.632812 9.871094 C 10.613281 9.886719 10.601562 9.867188 10.605469 9.820312 C 10.605469 9.800781 10.605469 9.78125 10.601562 9.765625 C 10.53125 9.476562 10.472656 9.1875 10.421875 8.894531 C 10.316406 8.261719 10.351562 7.640625 10.535156 7.03125 C 10.652344 6.648438 10.863281 6.316406 11.164062 6.039062 C 11.25 5.960938 11.261719 5.972656 11.199219 6.070312 C 11.0625 6.277344 10.957031 6.492188 10.878906 6.714844 C 10.816406 6.890625 10.765625 7.121094 10.726562 7.414062 Z M 11.105469 8.320312 L 11.097656 8.320312 C 11.09375 8.320312 11.09375 8.316406 11.09375 8.308594 C 11.109375 7.640625 11.320312 7.054688 11.71875 6.554688 C 12.300781 5.828125 13.050781 5.582031 13.96875 5.820312 C 13.992188 5.828125 13.992188 5.832031 13.96875 5.832031 C 13.09375 5.84375 12.378906 6.179688 11.828125 6.839844 C 11.484375 7.253906 11.246094 7.742188 11.121094 8.304688 C 11.117188 8.316406 11.113281 8.324219 11.105469 8.320312 Z M 20.160156 27.429688 C 20.160156 27.429688 20.160156 27.425781 20.160156 27.425781 C 20.148438 26.367188 20.210938 25.324219 20.335938 24.296875 C 20.398438 23.789062 20.484375 23.335938 20.582031 22.9375 C 20.746094 22.300781 20.957031 21.679688 21.222656 21.074219 C 21.445312 20.574219 21.65625 20.078125 21.859375 19.589844 C 21.890625 19.511719 21.878906 19.503906 21.824219 19.570312 C 21.179688 20.363281 20.425781 21.023438 19.554688 21.550781 C 19.097656 21.828125 18.625 22.082031 18.140625 22.308594 C 17.386719 22.664062 16.628906 23.007812 15.867188 23.34375 C 15.625 23.453125 15.375 23.511719 15.117188 23.519531 C 14.890625 23.527344 14.703125 23.492188 14.550781 23.410156 C 14.371094 23.3125 14.234375 23.164062 14.140625 22.957031 C 14.03125 22.71875 13.980469 22.5 13.984375 22.296875 C 13.996094 22.046875 13.988281 21.871094 13.96875 21.761719 C 13.933594 21.585938 13.851562 21.441406 13.71875 21.328125 C 13.699219 21.3125 13.695312 21.277344 13.714844 21.257812 C 14.058594 20.832031 14.429688 20.457031 14.828125 20.125 C 14.875 20.089844 14.867188 20.066406 14.8125 20.058594 C 14.558594 20.019531 14.316406 19.96875 14.085938 19.902344 C 14.03125 19.886719 13.800781 19.800781 13.390625 19.644531 C 13.117188 19.542969 12.832031 19.453125 12.527344 19.375 C 12.507812 19.371094 12.5 19.351562 12.503906 19.335938 C 12.503906 19.335938 12.503906 19.332031 12.503906 19.332031 C 12.617188 18.980469 12.5625 18.707031 12.34375 18.511719 C 12.335938 18.507812 12.1875 18.425781 11.902344 18.269531 C 11.613281 18.113281 11.402344 17.902344 11.265625 17.640625 C 11.214844 17.546875 11.199219 17.4375 11.222656 17.308594 C 11.234375 17.226562 11.277344 17.125 11.34375 17.007812 C 11.550781 16.65625 11.757812 16.308594 11.976562 15.964844 C 12.105469 15.753906 12.210938 15.492188 12.285156 15.175781 C 12.375 14.796875 12.335938 14.433594 12.179688 14.085938 C 12.0625 13.835938 11.945312 13.585938 11.828125 13.335938 C 11.699219 13.074219 11.605469 12.796875 11.542969 12.511719 C 11.378906 11.742188 11.324219 10.933594 11.378906 10.085938 C 11.398438 9.78125 11.464844 9.507812 11.570312 9.273438 C 12.179688 7.9375 13.167969 7.101562 14.535156 6.765625 C 15.375 6.558594 16.226562 6.632812 17.089844 6.996094 C 17.109375 7.003906 17.132812 6.996094 17.144531 6.980469 C 17.890625 6.136719 18.8125 5.628906 19.90625 5.453125 C 20.835938 5.308594 21.769531 5.382812 22.703125 5.683594 C 22.714844 5.6875 22.722656 5.695312 22.726562 5.699219 C 22.730469 5.710938 22.714844 5.714844 22.679688 5.707031 C 20.667969 5.386719 18.972656 5.949219 17.589844 7.394531 C 17.554688 7.425781 17.535156 7.472656 17.535156 7.519531 C 17.394531 9.625 17.976562 11.492188 19.277344 13.121094 C 19.863281 13.851562 20.5625 14.449219 21.371094 14.914062 C 22.082031 15.324219 22.824219 15.664062 23.601562 15.925781 C 23.621094 15.933594 23.632812 15.953125 23.628906 15.972656 C 23.597656 16.308594 23.46875 16.5625 23.238281 16.742188 C 22.984375 16.941406 22.738281 16.96875 22.503906 16.824219 C 22.335938 16.71875 22.226562 16.570312 22.179688 16.371094 C 22.132812 16.175781 22.15625 15.976562 22.246094 15.773438 C 22.289062 15.679688 22.277344 15.671875 22.210938 15.753906 C 22.117188 15.878906 22.039062 16.015625 21.988281 16.160156 C 21.84375 16.558594 21.886719 16.894531 22.113281 17.175781 C 22.199219 17.277344 22.339844 17.382812 22.542969 17.488281 C 22.648438 17.542969 22.753906 17.597656 22.859375 17.652344 C 22.992188 17.722656 23.09375 17.789062 23.15625 17.847656 C 23.316406 17.996094 23.417969 18.175781 23.464844 18.390625 C 23.53125 18.675781 23.582031 19.046875 23.621094 19.496094 C 23.664062 19.972656 23.761719 20.519531 23.921875 21.128906 C 24.207031 22.214844 24.703125 23.1875 25.414062 24.046875 C 25.425781 24.058594 25.433594 24.0625 25.4375 24.050781 C 25.441406 24.046875 25.441406 24.042969 25.4375 24.035156 C 25.4375 24.03125 25.4375 24.027344 25.433594 24.023438 C 25.039062 23.5 24.753906 22.976562 24.566406 22.449219 C 23.871094 20.457031 23.753906 18.398438 24.210938 16.273438 C 24.210938 16.269531 24.214844 16.238281 24.214844 16.179688 C 24.21875 16.109375 24.285156 16.105469 24.414062 16.164062 C 24.433594 16.171875 24.445312 16.195312 24.441406 16.214844 C 24.34375 17.023438 24.300781 17.816406 24.3125 18.597656 C 24.324219 19.117188 24.347656 19.578125 24.394531 19.980469 C 24.550781 21.429688 25.015625 22.78125 25.78125 24.035156 C 25.789062 24.050781 25.785156 24.070312 25.769531 24.078125 C 25.398438 24.285156 25.003906 24.414062 24.582031 24.46875 C 24.210938 24.515625 23.84375 24.484375 23.488281 24.371094 C 23.21875 24.285156 23.007812 24.128906 22.855469 23.902344 C 22.742188 23.738281 22.699219 23.546875 22.726562 23.335938 C 22.765625 23.03125 22.933594 22.84375 23.230469 22.78125 C 23.425781 22.738281 23.601562 22.773438 23.765625 22.882812 C 23.804688 22.90625 23.824219 22.910156 23.820312 22.886719 C 23.820312 22.875 23.808594 22.863281 23.792969 22.851562 C 23.621094 22.726562 23.425781 22.683594 23.210938 22.714844 C 22.882812 22.765625 22.640625 22.910156 22.480469 23.148438 C 22.332031 23.363281 22.289062 23.617188 22.347656 23.90625 C 22.421875 24.261719 22.613281 24.550781 22.929688 24.78125 C 23.382812 25.109375 23.894531 25.261719 24.460938 25.234375 C 25.289062 25.195312 26.015625 24.898438 26.632812 24.351562 C 27.269531 23.792969 27.695312 23.125 27.914062 22.347656 C 28.15625 21.480469 28.175781 20.621094 27.972656 19.777344 C 27.84375 19.25 27.605469 18.753906 27.257812 18.285156 L 27.117188 18.113281 L 26.996094 17.972656 C 26.835938 17.824219 26.84375 17.816406 27.015625 17.953125 L 27.136719 18.09375 L 27.289062 18.265625 C 27.734375 18.785156 28.03125 19.363281 28.183594 19.996094 C 28.398438 20.90625 28.378906 21.824219 28.121094 22.753906 C 27.886719 23.601562 27.46875 24.320312 26.867188 24.910156 C 26.566406 25.207031 26.195312 25.476562 25.761719 25.722656 C 25.230469 26.019531 24.667969 26.25 24.074219 26.40625 C 23.503906 26.558594 22.929688 26.691406 22.351562 26.804688 C 21.609375 26.953125 20.882812 27.164062 20.179688 27.441406 C 20.171875 27.441406 20.164062 27.4375 20.160156 27.429688 Z M 28.84375 23.902344 C 28.53125 25.507812 27.640625 26.691406 26.171875 27.449219 C 25.351562 27.875 24.414062 28.105469 23.363281 28.140625 C 22.386719 28.171875 21.421875 28.296875 20.464844 28.507812 C 20.390625 28.523438 20.386719 28.515625 20.453125 28.476562 C 21.269531 28.027344 22.128906 27.6875 23.03125 27.457031 C 23.921875 27.230469 24.476562 27.078125 24.703125 27.003906 C 25.292969 26.804688 25.796875 26.566406 26.210938 26.292969 C 27.6875 25.320312 28.484375 23.957031 28.605469 22.207031 C 28.664062 21.367188 28.53125 20.503906 28.207031 19.621094 C 28.199219 19.605469 28.199219 19.589844 28.203125 19.578125 C 28.210938 19.554688 28.226562 19.558594 28.242188 19.59375 C 28.695312 20.527344 28.929688 21.503906 28.953125 22.523438 C 28.964844 23 28.925781 23.460938 28.839844 23.902344 Z M 26.023438 31.503906 C 25.996094 31.507812 25.972656 31.507812 25.949219 31.5 C 25.925781 31.492188 25.925781 31.484375 25.953125 31.476562 C 27.007812 31.195312 27.925781 30.710938 28.699219 30.019531 C 29.984375 28.871094 30.652344 27.441406 30.714844 25.71875 C 30.753906 24.660156 30.605469 23.597656 30.269531 22.527344 C 29.929688 21.449219 29.472656 20.421875 28.898438 19.453125 C 28.59375 18.9375 28.277344 18.429688 27.953125 17.925781 C 27.878906 17.808594 27.890625 17.800781 27.980469 17.902344 C 28.359375 18.308594 28.730469 18.722656 29.097656 19.140625 C 29.804688 19.945312 30.394531 20.828125 30.867188 21.789062 C 31.402344 22.882812 31.695312 24.003906 31.75 25.152344 C 31.785156 25.9375 31.632812 26.71875 31.300781 27.496094 C 30.648438 29.019531 29.578125 30.140625 28.089844 30.851562 C 27.429688 31.167969 26.742188 31.382812 26.023438 31.503906 Z M 33.820312 28.175781 C 33.269531 29.054688 32.535156 29.796875 31.617188 30.394531 C 30.273438 31.269531 28.796875 31.710938 27.1875 31.714844 C 27 31.714844 26.988281 31.707031 27.15625 31.6875 C 27.402344 31.664062 27.644531 31.625 27.890625 31.578125 C 30.125 31.132812 31.867188 29.972656 33.117188 28.105469 C 33.773438 27.121094 34.179688 26.03125 34.332031 24.839844 C 34.386719 24.40625 34.402344 23.945312 34.382812 23.457031 C 34.304688 21.398438 33.636719 19.542969 32.378906 17.886719 C 32.3125 17.796875 32.238281 17.710938 32.15625 17.632812 C 32.148438 17.625 32.144531 17.617188 32.144531 17.613281 C 32.140625 17.597656 32.148438 17.59375 32.164062 17.59375 C 32.167969 17.597656 32.175781 17.601562 32.179688 17.605469 C 32.257812 17.683594 32.332031 17.761719 32.398438 17.851562 C 33.222656 18.78125 33.855469 19.839844 34.300781 21.023438 C 34.6875 22.054688 34.886719 23.113281 34.902344 24.203125 C 34.921875 25.660156 34.5625 26.988281 33.820312 28.175781 Z M 33.820312 28.175781 " fill-opacity="1" fill-rule="nonzero"/></g><path fill="#dfa097" d="M 18.113281 9.863281 C 18.0625 9.714844 18.015625 9.5625 17.972656 9.414062 C 17.957031 9.371094 17.949219 9.371094 17.945312 9.410156 C 17.941406 9.476562 17.984375 9.632812 18.082031 9.878906 C 18.085938 9.863281 18.097656 9.859375 18.113281 9.863281 Z M 18.113281 9.863281 " fill-opacity="1" fill-rule="nonzero"/><path fill="#dfa097" d="M 13.707031 11.777344 C 13.972656 11.394531 14.34375 11.183594 14.824219 11.140625 C 15.347656 11.097656 15.914062 11.140625 16.523438 11.273438 C 16.546875 11.277344 16.546875 11.277344 16.527344 11.265625 C 15.925781 11.019531 15.304688 10.859375 14.664062 10.789062 C 14.363281 10.757812 14.128906 10.761719 13.960938 10.804688 C 13.734375 10.867188 13.523438 10.988281 13.332031 11.171875 C 13.015625 11.472656 12.761719 11.773438 12.574219 12.074219 C 12.503906 12.183594 12.449219 12.304688 12.417969 12.433594 C 12.371094 12.632812 12.425781 12.785156 12.585938 12.898438 C 12.746094 13.007812 12.882812 13.019531 13.003906 12.933594 C 13.058594 12.894531 13.125 12.792969 13.207031 12.632812 C 13.371094 12.308594 13.539062 12.023438 13.707031 11.777344 Z M 13.707031 11.777344 " fill-opacity="1" fill-rule="nonzero"/><path fill="#dfa097" d="M 19.335938 11.378906 C 19.15625 11.179688 19.148438 11.1875 19.316406 11.402344 C 19.316406 11.390625 19.324219 11.382812 19.335938 11.378906 Z M 19.335938 11.378906 " fill-opacity="1" fill-rule="nonzero"/><g clip-path="url(#a4c33b9fde)"><path fill="#dfa097" d="M 4.011719 13.078125 L 4.042969 13.074219 C 4.007812 13.019531 4.023438 12.996094 4.089844 13.007812 C 3.953125 12.6875 3.855469 12.359375 3.792969 12.015625 C 3.789062 11.976562 3.777344 11.96875 3.761719 11.992188 C 3.753906 12 3.753906 12.015625 3.757812 12.039062 C 3.8125 12.378906 3.875 12.722656 3.941406 13.0625 C 3.972656 13.035156 3.996094 13.042969 4.011719 13.078125 Z M 4.011719 13.078125 " fill-opacity="1" fill-rule="nonzero"/></g><path fill="#dfa097" d="M 16.964844 12.71875 C 16.628906 12.773438 16.3125 12.761719 16.007812 12.679688 C 15.484375 12.539062 15.039062 12.441406 14.667969 12.386719 C 14.460938 12.351562 14.285156 12.34375 14.140625 12.351562 C 13.972656 12.363281 13.839844 12.429688 13.753906 12.550781 C 13.691406 12.632812 13.648438 12.757812 13.625 12.933594 C 13.558594 13.378906 13.59375 13.816406 13.726562 14.25 C 13.738281 14.28125 13.730469 14.316406 13.707031 14.339844 C 13.535156 14.507812 13.347656 14.640625 13.148438 14.738281 C 13.128906 14.746094 13.128906 14.753906 13.152344 14.757812 C 13.394531 14.777344 13.625 14.753906 13.847656 14.683594 C 13.867188 14.679688 13.871094 14.683594 13.855469 14.703125 C 13.757812 14.820312 13.636719 14.902344 13.492188 14.957031 C 13.421875 14.980469 13.425781 14.984375 13.5 14.972656 C 13.816406 14.917969 14.0625 14.746094 14.230469 14.460938 C 14.246094 14.433594 14.261719 14.433594 14.273438 14.464844 L 14.367188 14.71875 C 14.367188 14.722656 14.371094 14.726562 14.375 14.730469 C 14.382812 14.742188 14.402344 14.742188 14.414062 14.730469 C 14.492188 14.65625 14.566406 14.660156 14.640625 14.746094 C 14.640625 14.746094 14.640625 14.746094 14.640625 14.75 C 14.65625 14.765625 14.679688 14.769531 14.699219 14.753906 C 14.785156 14.675781 14.855469 14.667969 14.90625 14.726562 C 14.90625 14.726562 14.910156 14.726562 14.910156 14.726562 C 14.921875 14.738281 14.9375 14.734375 14.945312 14.722656 C 14.996094 14.652344 15.054688 14.617188 15.117188 14.617188 C 15.140625 14.617188 15.160156 14.609375 15.175781 14.59375 C 15.253906 14.519531 15.34375 14.46875 15.445312 14.4375 C 15.464844 14.433594 15.480469 14.417969 15.488281 14.394531 C 15.503906 14.347656 15.535156 14.308594 15.570312 14.277344 C 15.644531 14.21875 15.6875 14.179688 15.699219 14.167969 C 15.890625 13.933594 16.0625 13.6875 16.222656 13.429688 C 16.347656 13.230469 16.449219 13.089844 16.53125 13.015625 C 16.660156 12.898438 16.804688 12.800781 16.96875 12.726562 C 16.988281 12.714844 16.988281 12.714844 16.964844 12.71875 Z M 16.058594 12.980469 C 15.527344 13.085938 15.011719 13.261719 14.507812 13.519531 C 14.269531 13.640625 14.058594 13.796875 13.875 13.996094 C 13.859375 14.011719 13.847656 14.007812 13.84375 13.988281 C 13.804688 13.800781 13.792969 13.625 13.804688 13.457031 C 13.820312 13.269531 13.875 13.105469 13.972656 12.96875 C 14.171875 12.675781 14.480469 12.566406 14.894531 12.640625 C 15.273438 12.707031 15.664062 12.804688 16.0625 12.933594 C 16.121094 12.953125 16.121094 12.96875 16.058594 12.980469 Z M 16.058594 12.980469 " fill-opacity="1" fill-rule="nonzero"/><path fill="#dfa097" d="M 12.460938 17.839844 C 12.347656 17.796875 12.265625 17.769531 12.21875 17.761719 C 12.113281 17.746094 12.03125 17.78125 11.964844 17.875 C 11.964844 17.875 11.960938 17.875 11.960938 17.875 C 11.949219 17.898438 11.953125 17.925781 11.976562 17.941406 C 12.261719 18.121094 12.539062 18.210938 12.808594 18.210938 C 12.890625 18.210938 12.90625 18.179688 12.851562 18.117188 C 12.742188 17.992188 12.613281 17.898438 12.460938 17.839844 Z M 12.460938 17.839844 " fill-opacity="1" fill-rule="nonzero"/><path fill="#dfa097" d="M 27.015625 17.953125 C 26.84375 17.816406 26.839844 17.824219 26.996094 17.972656 C 27 17.964844 27.003906 17.957031 27.015625 17.953125 Z M 27.015625 17.953125 " fill-opacity="1" fill-rule="nonzero"/><path fill="#dfa097" d="M 32.296875 19.390625 C 32.285156 19.390625 32.28125 19.398438 32.277344 19.410156 C 32.523438 19.710938 32.53125 19.703125 32.296875 19.390625 Z M 32.296875 19.390625 " fill-opacity="1" fill-rule="nonzero"/><path fill="#dfa097" d="M 27.035156 22.539062 L 27 22.542969 C 27.203125 22.8125 27.214844 22.8125 27.035156 22.539062 Z M 27.035156 22.539062 " fill-opacity="1" fill-rule="nonzero"/></svg>