<svg xmlns="http://www.w3.org/2000/svg" xmlns:xlink="http://www.w3.org/1999/xlink" width="50" zoomAndPan="magnify" viewBox="0 0 37.5 37.499999" height="50" preserveAspectRatio="xMidYMid meet" version="1.0"><defs><clipPath id="5d1fda6fde"><path d="M 0 6 L 37.007812 6 L 37.007812 29.851562 L 0 29.851562 Z M 0 6 " clip-rule="nonzero"/></clipPath></defs><g clip-path="url(#5d1fda6fde)"><path fill="#dfa097" d="M 37.195312 15.992188 C 36.96875 15.445312 36.347656 15.1875 35.804688 15.414062 C 32.203125 16.914062 29.308594 17.003906 27.070312 16.5 C 27.015625 16.484375 26.960938 16.472656 26.90625 16.464844 C 23.085938 15.546875 21.238281 12.902344 21.113281 12.714844 C 20.785156 12.226562 20.125 12.09375 19.636719 12.417969 C 19.148438 12.746094 19.015625 13.410156 19.339844 13.898438 C 19.371094 13.949219 21.222656 16.644531 24.953125 18.054688 C 24.472656 19.429688 23.65625 22.066406 23.433594 24.710938 C 23.433594 24.710938 23.65625 24.753906 24.03125 24.816406 C 23.847656 26.621094 23.800781 27.996094 23.796875 28.125 C 23.78125 28.714844 24.242188 29.210938 24.828125 29.226562 C 24.839844 29.226562 24.851562 29.226562 24.863281 29.226562 C 25.433594 29.226562 25.90625 28.769531 25.925781 28.191406 C 25.925781 28.164062 25.96875 26.828125 26.144531 25.078125 C 26.742188 25.132812 27.394531 25.171875 28.054688 25.179688 C 29.316406 28.0625 31.015625 29.5 31.132812 29.59375 C 31.332031 29.753906 31.566406 29.835938 31.804688 29.835938 C 32.113281 29.835938 32.417969 29.699219 32.632812 29.441406 C 33 28.984375 32.933594 28.3125 32.476562 27.9375 C 32.457031 27.921875 31.335938 26.972656 30.339844 25.03125 C 30.929688 24.9375 31.472656 24.789062 31.925781 24.574219 C 31.925781 24.574219 30.871094 21.335938 30.800781 18.855469 C 32.539062 18.71875 34.476562 18.28125 36.621094 17.386719 C 37.164062 17.160156 37.421875 16.535156 37.195312 15.992188 Z M 17.824219 12.421875 C 17.335938 12.09375 16.675781 12.226562 16.347656 12.714844 C 16.226562 12.890625 14.378906 15.546875 10.550781 16.464844 C 10.496094 16.472656 10.441406 16.484375 10.386719 16.503906 C 8.148438 17.003906 5.257812 16.914062 1.652344 15.414062 C 1.109375 15.1875 0.488281 15.445312 0.261719 15.992188 C 0.0390625 16.535156 0.296875 17.160156 0.839844 17.386719 C 3.464844 18.480469 5.789062 18.90625 7.808594 18.90625 C 7.832031 18.90625 7.851562 18.902344 7.875 18.902344 C 8.007812 19.761719 8.15625 21.046875 8.128906 22.40625 C 7.148438 26.074219 5.097656 27.839844 4.976562 27.941406 C 4.523438 28.3125 4.457031 28.984375 4.828125 29.441406 C 5.039062 29.699219 5.34375 29.835938 5.652344 29.835938 C 5.890625 29.835938 6.128906 29.757812 6.324219 29.59375 C 6.460938 29.484375 8.800781 27.503906 10.03125 23.476562 C 10.382812 23.40625 10.75 23.355469 11.109375 23.332031 C 11.457031 25.863281 11.53125 28.152344 11.535156 28.191406 C 11.550781 28.769531 12.023438 29.226562 12.597656 29.226562 C 12.609375 29.226562 12.621094 29.226562 12.632812 29.226562 C 13.21875 29.210938 13.679688 28.71875 13.660156 28.128906 C 13.65625 27.957031 13.582031 25.714844 13.230469 23.144531 C 13.238281 21.972656 13.230469 19.65625 13.082031 17.824219 C 16.425781 16.367188 18.089844 13.945312 18.117188 13.898438 C 18.441406 13.410156 18.308594 12.75 17.824219 12.421875 Z M 9.238281 16.167969 C 11.445312 16.167969 13.234375 14.371094 13.234375 12.15625 C 13.234375 9.941406 11.445312 8.148438 9.238281 8.148438 C 7.03125 8.148438 5.246094 9.941406 5.246094 12.15625 C 5.246094 14.371094 7.03125 16.167969 9.238281 16.167969 Z M 25.753906 9.109375 C 25.828125 9.246094 25.8125 9.421875 25.707031 9.542969 C 25.289062 10.03125 24.984375 10.625 24.839844 11.308594 C 24.359375 13.558594 25.867188 15.773438 28.175781 16.113281 C 30.238281 16.417969 32.222656 15.019531 32.652344 12.972656 C 32.792969 12.300781 32.757812 11.636719 32.574219 11.019531 C 32.53125 10.867188 32.585938 10.703125 32.710938 10.609375 C 33.847656 9.746094 32.777344 13.742188 36.855469 12.835938 C 34.339844 12.246094 35.585938 9.9375 35.277344 9.003906 C 34.980469 8.128906 33.429688 7.351562 32.035156 9.570312 C 31.988281 9.652344 31.875 9.660156 31.8125 9.585938 C 31.261719 8.914062 30.496094 8.421875 29.582031 8.222656 C 28.671875 8.027344 27.769531 8.164062 26.996094 8.546875 C 26.910156 8.589844 26.8125 8.535156 26.796875 8.441406 C 26.425781 5.847656 24.691406 5.921875 24.066406 6.597656 C 23.402344 7.320312 23.601562 9.941406 21.0625 9.449219 C 24.40625 11.945312 25.0625 7.871094 25.753906 9.109375 Z M 25.753906 9.109375 " fill-opacity="1" fill-rule="nonzero"/></g></svg>