<svg xmlns="http://www.w3.org/2000/svg" xmlns:xlink="http://www.w3.org/1999/xlink" width="50" zoomAndPan="magnify" viewBox="0 0 37.5 37.499999" height="50" preserveAspectRatio="xMidYMid meet" version="1.0"><defs><clipPath id="ba26020892"><path d="M 0 0 L 37.007812 0 L 37.007812 37.007812 L 0 37.007812 Z M 0 0 " clip-rule="nonzero"/></clipPath></defs><g clip-path="url(#ba26020892)"><path fill="#dfa097" d="M 36.890625 37.496094 L 0.609375 37.496094 C 0.28125 37.496094 0.015625 37.230469 0.015625 36.902344 L 0.015625 33.511719 C 0.015625 27.875 4.601562 23.285156 10.242188 23.285156 L 27.261719 23.285156 C 32.898438 23.285156 37.488281 27.875 37.488281 33.511719 L 37.488281 36.902344 C 37.488281 37.230469 37.222656 37.496094 36.890625 37.496094 Z M 18.75 21.6875 C 12.773438 21.6875 7.90625 16.824219 7.90625 10.84375 C 7.90625 4.863281 12.773438 0 18.75 0 C 24.730469 0 29.59375 4.863281 29.59375 10.84375 C 29.59375 16.824219 24.730469 21.6875 18.75 21.6875 Z M 18.75 21.6875 " fill-opacity="1" fill-rule="nonzero"/></g></svg>