<svg xmlns="http://www.w3.org/2000/svg" xmlns:xlink="http://www.w3.org/1999/xlink" width="50" zoomAndPan="magnify" viewBox="0 0 37.5 37.499999" height="50" preserveAspectRatio="xMidYMid meet" version="1.0"><defs><clipPath id="787e417cc2"><path d="M 0 0 L 37.007812 0 L 37.007812 37.007812 L 0 37.007812 Z M 0 0 " clip-rule="nonzero"/></clipPath></defs><g clip-path="url(#787e417cc2)"><path fill="#dfa097" d="M 35.871094 8.152344 L 29.152344 8.152344 C 30.976562 6.667969 31.792969 4.890625 31.792969 3.480469 C 31.792969 1.746094 30.503906 0 27.71875 0 C 23.699219 0 20.488281 3.824219 18.75 6.523438 C 16.980469 3.816406 13.769531 0 9.78125 0 C 6.996094 0 5.707031 1.746094 5.707031 3.480469 C 5.707031 4.890625 6.523438 6.667969 8.347656 8.152344 L 1.628906 8.152344 C 1.414062 8.152344 1.207031 8.195312 1.007812 8.277344 C 0.808594 8.359375 0.628906 8.476562 0.476562 8.628906 C 0.324219 8.78125 0.207031 8.957031 0.125 9.160156 C 0.0429688 9.359375 0 9.566406 0 9.78125 L 0 16.304688 C 0 16.519531 0.0429688 16.730469 0.125 16.929688 C 0.207031 17.128906 0.324219 17.304688 0.476562 17.457031 C 0.628906 17.609375 0.808594 17.726562 1.007812 17.8125 C 1.207031 17.894531 1.414062 17.933594 1.628906 17.933594 L 3.261719 17.933594 L 3.261719 35.871094 C 3.261719 36.085938 3.300781 36.292969 3.386719 36.492188 C 3.46875 36.691406 3.585938 36.871094 3.738281 37.023438 C 3.890625 37.175781 4.066406 37.292969 4.265625 37.375 C 4.46875 37.457031 4.675781 37.5 4.890625 37.5 L 32.609375 37.5 C 32.824219 37.5 33.03125 37.457031 33.234375 37.375 C 33.433594 37.292969 33.609375 37.175781 33.761719 37.023438 C 33.914062 36.871094 34.03125 36.691406 34.113281 36.492188 C 34.199219 36.292969 34.238281 36.085938 34.238281 35.871094 L 34.238281 17.933594 L 35.871094 17.933594 C 36.085938 17.933594 36.292969 17.894531 36.492188 17.8125 C 36.691406 17.726562 36.871094 17.609375 37.023438 17.457031 C 37.175781 17.304688 37.292969 17.128906 37.375 16.929688 C 37.457031 16.730469 37.5 16.519531 37.5 16.304688 L 37.5 9.78125 C 37.5 9.566406 37.457031 9.359375 37.375 9.160156 C 37.292969 8.957031 37.175781 8.78125 37.023438 8.628906 C 36.871094 8.476562 36.691406 8.359375 36.492188 8.277344 C 36.292969 8.195312 36.085938 8.152344 35.871094 8.152344 Z M 27.71875 3.261719 C 27.898438 3.261719 28.53125 3.261719 28.53125 3.53125 C 28.53125 4.550781 26.535156 6.929688 21.832031 7.816406 C 23.339844 5.707031 25.566406 3.261719 27.71875 3.261719 Z M 9.78125 3.261719 C 11.960938 3.261719 14.183594 5.707031 15.699219 7.816406 C 10.964844 6.929688 8.96875 4.550781 8.96875 3.53125 C 8.96875 3.261719 9.570312 3.261719 9.78125 3.261719 Z M 3.261719 11.414062 L 17.121094 11.414062 L 17.121094 14.675781 L 3.261719 14.675781 Z M 6.523438 17.933594 L 17.121094 17.933594 L 17.121094 34.238281 L 6.523438 34.238281 Z M 30.976562 34.238281 L 20.378906 34.238281 L 20.378906 17.933594 L 30.976562 17.933594 Z M 34.238281 14.675781 L 20.378906 14.675781 L 20.378906 11.414062 L 34.238281 11.414062 Z M 34.238281 14.675781 " fill-opacity="1" fill-rule="nonzero"/></g></svg>