<svg xmlns="http://www.w3.org/2000/svg" xmlns:xlink="http://www.w3.org/1999/xlink" width="50" zoomAndPan="magnify" viewBox="0 0 37.5 37.499999" height="50" preserveAspectRatio="xMidYMid meet" version="1.0"><defs><clipPath id="c2220da782"><path d="M 0 0 L 37.007812 0 L 37.007812 37.007812 L 0 37.007812 Z M 0 0 " clip-rule="nonzero"/></clipPath></defs><g clip-path="url(#c2220da782)"><path fill="#dfa097" d="M 18.75 37.5 C 13.742188 37.5 9.035156 35.550781 5.492188 32.007812 C 1.949219 28.464844 0 23.757812 0 18.75 C 0 13.742188 1.949219 9.035156 5.492188 5.492188 C 9.035156 1.949219 13.742188 0 18.75 0 C 23.757812 0 28.464844 1.949219 32.007812 5.492188 C 35.550781 9.035156 37.5 13.742188 37.5 18.75 C 37.5 23.757812 35.550781 28.464844 32.007812 32.007812 C 28.46875 35.550781 23.757812 37.5 18.75 37.5 Z M 18.75 2.863281 C 9.988281 2.863281 2.863281 9.988281 2.863281 18.75 C 2.863281 27.511719 9.988281 34.636719 18.75 34.636719 C 27.511719 34.636719 34.636719 27.511719 34.636719 18.75 C 34.636719 9.988281 27.511719 2.863281 18.75 2.863281 Z M 18.75 2.863281 " fill-opacity="1" fill-rule="nonzero"/></g><path fill="#dfa097" d="M 24.972656 25.988281 C 24.695312 25.988281 24.414062 25.910156 24.164062 25.738281 L 17.195312 20.960938 C 16.804688 20.691406 16.574219 20.25 16.574219 19.777344 L 16.59375 8.078125 C 16.59375 7.289062 17.234375 6.652344 18.023438 6.652344 C 18.816406 6.652344 19.453125 7.292969 19.453125 8.085938 L 19.4375 19.027344 L 25.785156 23.378906 C 26.433594 23.824219 26.601562 24.714844 26.15625 25.367188 C 25.878906 25.773438 25.429688 25.988281 24.972656 25.988281 Z M 24.972656 25.988281 " fill-opacity="1" fill-rule="nonzero"/></svg>