<svg xmlns="http://www.w3.org/2000/svg" xmlns:xlink="http://www.w3.org/1999/xlink" width="50" zoomAndPan="magnify" viewBox="0 0 37.5 37.499999" height="50" preserveAspectRatio="xMidYMid meet" version="1.0"><defs><clipPath id="9efd6c3e7f"><path d="M 0 0 L 37.007812 0 L 37.007812 36 L 0 36 Z M 0 0 " clip-rule="nonzero"/></clipPath></defs><g clip-path="url(#9efd6c3e7f)"><path fill="#dfa097" d="M 2.507812 15.261719 L 1.515625 14.277344 L 2.507812 13.292969 Z M 3.757812 9.308594 L 31.246094 9.308594 L 31.246094 18.984375 L 28.488281 21.722656 L 24.007812 21.722656 L 22.757812 20.484375 L 26.871094 20.484375 C 27.214844 20.484375 27.496094 20.203125 27.496094 19.863281 C 27.496094 18.835938 28.335938 18 29.371094 18 C 29.714844 18 29.996094 17.722656 29.996094 17.378906 L 29.996094 13.65625 C 29.996094 13.3125 29.714844 13.035156 29.371094 13.035156 C 28.335938 13.035156 27.496094 12.199219 27.496094 11.171875 C 27.496094 10.832031 27.214844 10.550781 26.871094 10.550781 L 8.128906 10.550781 C 7.785156 10.550781 7.503906 10.832031 7.503906 11.171875 C 7.503906 12.199219 6.664062 13.035156 5.628906 13.035156 C 5.285156 13.035156 5.007812 13.3125 5.007812 13.65625 L 5.007812 17.378906 C 5.007812 17.722656 5.285156 18 5.628906 18 C 6.664062 18 7.503906 18.835938 7.503906 19.863281 C 7.503906 20.203125 7.785156 20.484375 8.128906 20.484375 L 14.742188 20.484375 L 13.492188 21.722656 L 9.011719 21.722656 L 3.757812 16.5 Z M 6.253906 6.828125 L 33.742188 6.828125 L 33.742188 16.5 L 32.492188 17.742188 L 32.492188 8.691406 C 32.492188 8.347656 32.214844 8.070312 31.871094 8.070312 L 6.253906 8.070312 Z M 13.355469 2.515625 C 14.183594 1.691406 15.28125 1.242188 16.445312 1.242188 L 21.054688 1.242188 C 22.21875 1.242188 23.316406 1.691406 24.144531 2.515625 L 27.238281 5.585938 L 10.261719 5.585938 Z M 35.984375 14.277344 L 34.992188 15.261719 L 34.992188 13.292969 Z M 26.246094 23.949219 L 25.257812 22.964844 L 27.238281 22.964844 Z M 36.242188 15.773438 L 36.242188 33.882812 L 27.128906 24.828125 Z M 16.875 12.527344 C 16.152344 12.785156 15.625 13.46875 15.625 14.277344 C 15.625 15.304688 16.464844 16.136719 17.5 16.136719 C 17.84375 16.136719 18.125 16.417969 18.125 16.757812 C 18.125 17.101562 17.84375 17.378906 17.5 17.378906 C 17.15625 17.378906 16.875 17.101562 16.875 16.757812 L 15.625 16.757812 C 15.625 17.566406 16.152344 18.25 16.875 18.507812 L 16.875 19.140625 C 16.78125 19.171875 16.691406 19.203125 16.601562 19.242188 L 8.691406 19.242188 C 8.441406 18.027344 7.476562 17.070312 6.253906 16.820312 L 6.253906 14.210938 C 7.476562 13.964844 8.441406 13.007812 8.691406 11.792969 L 16.875 11.792969 Z M 20.898438 19.242188 C 20.015625 18.878906 19.058594 18.753906 18.125 18.855469 L 18.125 18.507812 C 18.851562 18.25 19.375 17.566406 19.375 16.757812 C 19.375 15.730469 18.535156 14.898438 17.5 14.898438 C 17.15625 14.898438 16.875 14.617188 16.875 14.277344 C 16.875 13.933594 17.15625 13.65625 17.5 13.65625 C 17.84375 13.65625 18.125 13.933594 18.125 14.277344 L 19.375 14.277344 C 19.375 13.46875 18.851562 12.785156 18.125 12.527344 L 18.125 11.792969 L 26.308594 11.792969 C 26.558594 13.007812 27.523438 13.964844 28.746094 14.210938 L 28.746094 16.820312 C 27.523438 17.070312 26.558594 18.027344 26.308594 19.242188 Z M 2.140625 34.757812 L 15.65625 21.328125 C 17.363281 19.636719 20.136719 19.636719 21.84375 21.328125 L 35.359375 34.757812 Z M 11.253906 23.949219 L 10.261719 22.964844 L 12.242188 22.964844 Z M 10.371094 24.828125 L 1.257812 33.882812 L 1.257812 15.773438 Z M 0.0546875 35.617188 C 0.0546875 35.617188 0.0585938 35.621094 0.0585938 35.621094 C 0.0585938 35.625 0.0625 35.628906 0.0664062 35.632812 C 0.09375 35.695312 0.132812 35.75 0.175781 35.796875 C 0.191406 35.8125 0.207031 35.828125 0.226562 35.839844 C 0.265625 35.875 0.308594 35.90625 0.355469 35.925781 C 0.375 35.9375 0.394531 35.949219 0.414062 35.957031 C 0.484375 35.984375 0.554688 36 0.632812 36 L 36.867188 36 C 36.941406 36 37.015625 35.984375 37.085938 35.957031 C 37.105469 35.949219 37.125 35.9375 37.144531 35.925781 C 37.191406 35.90625 37.234375 35.875 37.273438 35.839844 C 37.292969 35.824219 37.308594 35.8125 37.320312 35.796875 C 37.367188 35.75 37.40625 35.695312 37.433594 35.632812 C 37.4375 35.628906 37.441406 35.625 37.441406 35.621094 C 37.441406 35.617188 37.441406 35.617188 37.441406 35.617188 C 37.472656 35.546875 37.484375 35.472656 37.488281 35.402344 C 37.488281 35.394531 37.492188 35.386719 37.492188 35.378906 L 37.492188 14.277344 C 37.492188 14.199219 37.476562 14.128906 37.449219 14.0625 C 37.441406 14.039062 37.429688 14.023438 37.421875 14.007812 C 37.398438 13.957031 37.367188 13.910156 37.332031 13.867188 C 37.320312 13.859375 37.320312 13.847656 37.308594 13.835938 L 34.992188 11.535156 L 34.992188 6.207031 C 34.992188 5.863281 34.710938 5.585938 34.367188 5.585938 L 29.003906 5.585938 L 25.027344 1.636719 C 23.96875 0.582031 22.554688 0 21.054688 0 L 16.445312 0 C 14.945312 0 13.53125 0.582031 12.472656 1.636719 L 8.496094 5.585938 L 5.628906 5.585938 C 5.285156 5.585938 5.007812 5.863281 5.007812 6.207031 L 5.007812 8.070312 L 3.132812 8.070312 C 2.789062 8.070312 2.507812 8.347656 2.507812 8.691406 L 2.507812 11.535156 L 0.191406 13.835938 C 0.179688 13.847656 0.179688 13.859375 0.167969 13.867188 C 0.132812 13.910156 0.101562 13.957031 0.078125 14.007812 C 0.0703125 14.023438 0.0585938 14.039062 0.0507812 14.0625 C 0.0234375 14.128906 0.0078125 14.199219 0.0078125 14.277344 L 0.0078125 35.378906 C 0.0078125 35.386719 0.0117188 35.394531 0.0117188 35.402344 C 0.015625 35.472656 0.0273438 35.546875 0.0546875 35.617188 " fill-opacity="1" fill-rule="nonzero"/></g></svg>